<?xml version="1.0" encoding="UTF-8" standalone="no"?>
<!-- Created with Inkscape (http://www.inkscape.org/) -->

<svg
   xmlns:dc="http://purl.org/dc/elements/1.1/"
   xmlns:cc="http://creativecommons.org/ns#"
   xmlns:rdf="http://www.w3.org/1999/02/22-rdf-syntax-ns#"
   xmlns:svg="http://www.w3.org/2000/svg"
   xmlns="http://www.w3.org/2000/svg"
   xmlns:sodipodi="http://sodipodi.sourceforge.net/DTD/sodipodi-0.dtd"
   xmlns:inkscape="http://www.inkscape.org/namespaces/inkscape"
   id="svg4348"
   version="1.1"
   inkscape:version="0.48.2 r9819"
   width="999.99994"
   height="1014.8105"
   xml:space="preserve"
   sodipodi:docname="Bri.svg"><metadata
     id="metadata4354"><rdf:RDF><cc:Work
         rdf:about=""><dc:format>image/svg+xml</dc:format><dc:type
           rdf:resource="http://purl.org/dc/dcmitype/StillImage" /><dc:title></dc:title></cc:Work></rdf:RDF></metadata><defs
     id="defs4352"><linearGradient
       id="linearGradient13089"><stop
         style="stop-color:#802f71;stop-opacity:1"
         offset="0"
         id="stop13091" /><stop
         id="stop13103"
         offset="0.2"
         style="stop-color:#882a76;stop-opacity:1" /><stop
         id="stop13101"
         offset="0.40000001"
         style="stop-color:#8e2c7f;stop-opacity:1" /><stop
         id="stop13099"
         offset="0.60312504"
         style="stop-color:#a890b4;stop-opacity:1" /><stop
         id="stop13097"
         offset="0.80000001"
         style="stop-color:#aec0ce;stop-opacity:1" /><stop
         style="stop-color:#afc0ca;stop-opacity:1"
         offset="1"
         id="stop13093" /></linearGradient><clipPath
       clipPathUnits="userSpaceOnUse"
       id="clipPath4462"><path
         d="m 300.45,209.53 278.11,0 0,318.95 -278.11,0 0,-318.95 z"
         clip-rule="evenodd"
         id="path4464"
         inkscape:connector-curvature="0" /></clipPath><clipPath
       clipPathUnits="userSpaceOnUse"
       id="clipPath4616"><path
         d="m 14.661,99.052 277.8,0 0,297.54 -277.8,0 0,-297.54 z"
         clip-rule="evenodd"
         id="path4618"
         inkscape:connector-curvature="0" /></clipPath><clipPath
       clipPathUnits="userSpaceOnUse"
       id="clipPath4730"><path
         d="m -9.0009,-8.9992 612.96,0 0,860.04 -612.96,0 0,-860.04 z"
         clip-rule="evenodd"
         id="path4732"
         inkscape:connector-curvature="0" /></clipPath><clipPath
       clipPathUnits="userSpaceOnUse"
       id="clipPath4740"><path
         d="m 0,0 11692.92,0 0,4431.78 L 0,4431.78 0,0 z"
         id="path4742"
         inkscape:connector-curvature="0" /></clipPath><clipPath
       clipPathUnits="userSpaceOnUse"
       id="clipPath4828"><path
         d="m -9.0009,-8.9992 612.96,0 0,860.04 -612.96,0 0,-860.04 z"
         clip-rule="evenodd"
         id="path4830"
         inkscape:connector-curvature="0" /></clipPath><clipPath
       clipPathUnits="userSpaceOnUse"
       id="clipPath4838"><path
         d="m 0,0 224.26,0 0,117.75 L 0,117.75 0,0 z"
         id="path4840"
         inkscape:connector-curvature="0" /></clipPath><clipPath
       clipPathUnits="userSpaceOnUse"
       id="clipPath4850"><path
         d="m -9.0009,-8.9992 612.96,0 0,860.04 -612.96,0 0,-860.04 z"
         clip-rule="evenodd"
         id="path4852"
         inkscape:connector-curvature="0" /></clipPath><clipPath
       clipPathUnits="userSpaceOnUse"
       id="clipPath4860"><path
         d="m 0,0 67.33,0 0,67.33 L 0,67.33 0,0 z"
         id="path4862"
         inkscape:connector-curvature="0" /></clipPath><clipPath
       clipPathUnits="userSpaceOnUse"
       id="clipPath4872"><path
         d="m 299.41,99.083 279.14,0 0,101.13 -279.14,0 0,-101.13 z"
         clip-rule="evenodd"
         id="path4874"
         inkscape:connector-curvature="0" /></clipPath><clipPath
       clipPathUnits="userSpaceOnUse"
       id="clipPath4922"><path
         d="m 13.894,578.26 278.07,0 0,63.31 -278.07,0 0,-63.31 z"
         clip-rule="evenodd"
         id="path4924"
         inkscape:connector-curvature="0" /></clipPath><clipPath
       clipPathUnits="userSpaceOnUse"
       id="clipPath4956"><path
         d="m 13.895,516.19 278.07,0 0,54.621 -278.07,0 0,-54.621 z"
         clip-rule="evenodd"
         id="path4958"
         inkscape:connector-curvature="0" /></clipPath><clipPath
       clipPathUnits="userSpaceOnUse"
       id="clipPath4990"><path
         d="m 13.895,403.07 278.07,0 0,105.67 -278.07,0 0,-105.67 z"
         clip-rule="evenodd"
         id="path4992"
         inkscape:connector-curvature="0" /></clipPath><clipPath
       clipPathUnits="userSpaceOnUse"
       id="clipPath6196"><path
         inkscape:connector-curvature="0"
         d="m 0,0 595.276,0 0,841.89 L 0,841.89 0,0 z"
         id="path6198" /></clipPath><clipPath
       clipPathUnits="userSpaceOnUse"
       id="clipPath6580"><path
         inkscape:connector-curvature="0"
         d="m 0,0 595.276,0 0,841.89 L 0,841.89 0,0 z"
         id="path6582" /></clipPath><clipPath
       clipPathUnits="userSpaceOnUse"
       id="clipPath6822"><path
         inkscape:connector-curvature="0"
         d="m 0,0 595.276,0 0,841.89 L 0,841.89 0,0 z"
         id="path6824" /></clipPath><clipPath
       clipPathUnits="userSpaceOnUse"
       id="clipPath6914"><path
         inkscape:connector-curvature="0"
         d="m 0,0 595.276,0 0,841.89 L 0,841.89 0,0 z"
         id="path6916" /></clipPath><clipPath
       clipPathUnits="userSpaceOnUse"
       id="clipPath6936"><path
         inkscape:connector-curvature="0"
         d="m 0,0 595.276,0 0,841.89 L 0,841.89 0,0 z"
         id="path6938" /></clipPath><clipPath
       clipPathUnits="userSpaceOnUse"
       id="clipPath7320"><path
         inkscape:connector-curvature="0"
         d="m 0,0 595.276,0 0,841.89 L 0,841.89 0,0 z"
         id="path7322" /></clipPath><clipPath
       clipPathUnits="userSpaceOnUse"
       id="clipPath13227"><path
         inkscape:connector-curvature="0"
         d="m 120.975,97.97 129.84,0 0,-30.12 -129.84,0 0,30.12 z"
         id="path13229" /></clipPath><clipPath
       clipPathUnits="userSpaceOnUse"
       id="clipPath13566"><path
         inkscape:connector-curvature="0"
         d="m 312.622,28.346 78.3,0 0,62.681 -78.3,0 0,-62.681 z"
         id="path13568" /></clipPath><clipPath
       clipPathUnits="userSpaceOnUse"
       id="clipPath13602"><path
         inkscape:connector-curvature="0"
         d="m 312.622,28.346 78.3,0 0,62.681 -78.3,0 0,-62.681 z"
         id="path13604" /></clipPath><clipPath
       clipPathUnits="userSpaceOnUse"
       id="clipPath15506"><path
         inkscape:connector-curvature="0"
         d="m 470.052,147.441 78.646,0 0,74.975 -78.646,0 0,-74.975 z"
         id="path15508" /></clipPath><clipPath
       clipPathUnits="userSpaceOnUse"
       id="clipPath15516"><path
         inkscape:connector-curvature="0"
         d="m 0,0 841.89,0 0,595.276 L 0,595.276 0,0 z"
         id="path15518" /></clipPath><clipPath
       clipPathUnits="userSpaceOnUse"
       id="clipPath15526"><path
         inkscape:connector-curvature="0"
         d="m -6.81498,-2.16842 12.09295,0 0,8.55056 -12.09295,0 0,-8.55056 z"
         id="path15528" /></clipPath><clipPath
       clipPathUnits="userSpaceOnUse"
       id="clipPath16570"><path
         inkscape:connector-curvature="0"
         d="m 1637.427,37.897 113.462,0 0,76.023 -113.462,0 0,-76.023 z"
         id="path16572" /></clipPath><clipPath
       clipPathUnits="userSpaceOnUse"
       id="clipPath18101"><path
         inkscape:connector-curvature="0"
         d="m 445.166,28.3467 110.424,0 0,96.112 -110.424,0 0,-96.112 z"
         id="path18103" /></clipPath></defs><sodipodi:namedview
     pagecolor="#ffffff"
     bordercolor="#666666"
     borderopacity="1"
     objecttolerance="10"
     gridtolerance="10"
     guidetolerance="10"
     inkscape:pageopacity="0"
     inkscape:pageshadow="2"
     inkscape:window-width="1920"
     inkscape:window-height="1028"
     id="namedview4350"
     showgrid="false"
     fit-margin-left="0.5"
     fit-margin-bottom="0.5"
     fit-margin-top="0.5"
     fit-margin-right="0.5"
     inkscape:zoom="0.44843473"
     inkscape:cx="628.3335"
     inkscape:cy="317.86066"
     inkscape:window-x="-8"
     inkscape:window-y="-8"
     inkscape:window-maximized="1"
     inkscape:current-layer="g4356" /><g
     id="g4356"
     inkscape:groupmode="layer"
     inkscape:label="link_newsletter_spring_2013"
     transform="matrix(1.25,0,0,-1.25,-934.69946,2027.1802)"><g
       style="fill:#ff0000"
       transform="matrix(6.4777631,0,0,-6.4777631,-1122.5556,2904.7426)"
       id="g12724" /><g
       transform="matrix(10.200068,0,0,10.200068,-3972.9193,439.85581)"
       id="g18097"><g
         id="g18099"
         clip-path="url(#clipPath18101)"><path
           inkscape:connector-curvature="0"
           d="m 476.8361,76.1156 c 0,14.0178 11.3634,25.3813 25.3813,25.3813 14.0179,0 25.3814,-11.3635 25.3814,-25.3813 0,-14.0179 -11.3635,-25.3813 -25.3814,-25.3813 -14.0179,0 -25.3813,11.3634 -25.3813,25.3813"
           style="fill:#ef2c30;fill-opacity:1;fill-rule:nonzero;stroke:none"
           id="path18105" /><path
           inkscape:connector-curvature="0"
           d="m 476.8361,76.1156 c 0,14.0178 11.3634,25.3813 25.3813,25.3813 14.0179,0 25.3814,-11.3635 25.3814,-25.3813 0,-14.0179 -11.3635,-25.3813 -25.3814,-25.3813 -14.0179,0 -25.3813,11.3634 -25.3813,25.3813 z"
           style="fill:none;stroke:#ef2c30;stroke-width:0.3263;stroke-linecap:butt;stroke-linejoin:miter;stroke-miterlimit:3.86369991;stroke-opacity:1;stroke-dasharray:none"
           id="path18107" /><path
           inkscape:connector-curvature="0"
           d="m 519.0034,94.0175 c -21.9063,-9.8344 -11.4011,-22.6072 -11.4011,-22.6072 -15.7072,1.8021 -11.155,20.8341 -11.155,20.8341"
           style="fill:#ffffff;fill-opacity:1;fill-rule:nonzero;stroke:none"
           id="path18109" /><path
           inkscape:connector-curvature="0"
           d="m 519.0034,94.0175 c -21.9063,-9.8344 -11.4011,-22.6072 -11.4011,-22.6072 -15.7072,1.8021 -11.155,20.8341 -11.155,20.8341 l 22.5561,1.7731 z"
           style="fill:none;stroke:#ffffff;stroke-width:0.03108;stroke-linecap:butt;stroke-linejoin:miter;stroke-miterlimit:3.86369991;stroke-opacity:1;stroke-dasharray:none"
           id="path18111" /><path
           inkscape:connector-curvature="0"
           d="m 481.0144,71.4203 2.5324,0 0,-12.4445 -2.5324,2.9984"
           style="fill:#ffffff;fill-opacity:1;fill-rule:nonzero;stroke:none"
           id="path18113" /><path
           inkscape:connector-curvature="0"
           d="m 481.0144,71.4203 2.5324,0 0,-12.4445 -2.5324,2.9984 0,9.4461 z"
           style="fill:none;stroke:#ffffff;stroke-width:0.03108;stroke-linecap:butt;stroke-linejoin:miter;stroke-miterlimit:3.86369991;stroke-opacity:1;stroke-dasharray:none"
           id="path18115" /><path
           inkscape:connector-curvature="0"
           d="m 488.2233,71.4203 2.5324,0 0,-18.0841 -2.5324,1.6156"
           style="fill:#ffffff;fill-opacity:1;fill-rule:nonzero;stroke:none"
           id="path18117" /><path
           inkscape:connector-curvature="0"
           d="m 488.2233,71.4203 2.5324,0 0,-18.0841 -2.5324,1.6156 0,16.4685 z"
           style="fill:none;stroke:#ffffff;stroke-width:0.03108;stroke-linecap:butt;stroke-linejoin:miter;stroke-miterlimit:3.86369991;stroke-opacity:1;stroke-dasharray:none"
           id="path18119" /><path
           inkscape:connector-curvature="0"
           d="m 480.5483,73.7197 3.4802,0 0,-0.9166 -0.4817,-0.9323 -2.5324,0 -0.4661,0.9323"
           style="fill:#ffffff;fill-opacity:1;fill-rule:nonzero;stroke:none"
           id="path18121" /><path
           inkscape:connector-curvature="0"
           d="m 480.5483,73.7197 3.4802,0 0,-0.9166 -0.4817,-0.9323 -2.5324,0 -0.4661,0.9323 0,0.9166 z"
           style="fill:none;stroke:#ffffff;stroke-width:0.03108;stroke-linecap:butt;stroke-linejoin:miter;stroke-miterlimit:3.86369991;stroke-opacity:1;stroke-dasharray:none"
           id="path18123" /><path
           inkscape:connector-curvature="0"
           d="m 487.7572,73.7197 3.4801,0 0,-0.9166 -0.4816,-0.9323 -2.5324,0 -0.4661,0.9323"
           style="fill:#ffffff;fill-opacity:1;fill-rule:nonzero;stroke:none"
           id="path18125" /><path
           inkscape:connector-curvature="0"
           d="m 487.7572,73.7197 3.4801,0 0,-0.9166 -0.4816,-0.9323 -2.5324,0 -0.4661,0.9323 0,0.9166 z"
           style="fill:none;stroke:#ffffff;stroke-width:0.03108;stroke-linecap:butt;stroke-linejoin:miter;stroke-miterlimit:3.86369991;stroke-opacity:1;stroke-dasharray:none"
           id="path18127" /><path
           inkscape:connector-curvature="0"
           d="m 482.1952,74.1858 -1.1652,0 0,6.0281 9.7412,0 0,-6.0281 -1.1496,0 c -0.4817,3.4802 -3.7132,3.6199 -3.7132,3.6199 -3.4802,-0.2173 -3.7132,-3.6199 -3.7132,-3.6199"
           style="fill:#ffffff;fill-opacity:1;fill-rule:nonzero;stroke:none"
           id="path18129" /><path
           inkscape:connector-curvature="0"
           d="m 482.1952,74.1858 -1.1652,0 0,6.0281 9.7412,0 0,-6.0281 -1.1496,0 c -0.4817,3.4802 -3.7132,3.6199 -3.7132,3.6199 -3.4802,-0.2173 -3.7132,-3.6199 -3.7132,-3.6199 z"
           style="fill:none;stroke:#ffffff;stroke-width:0.03108;stroke-linecap:butt;stroke-linejoin:miter;stroke-miterlimit:3.86369991;stroke-opacity:1;stroke-dasharray:none"
           id="path18131" /><path
           inkscape:connector-curvature="0"
           d="m 483.5779,74.1858 -0.6836,0 c 0.233,3.0142 3.0141,3.0142 3.0141,3.0142 2.9985,-0.2176 2.9985,-3.0142 2.9985,-3.0142 l -0.6836,0 c -0.2176,2.3149 -2.3149,2.3149 -2.3149,2.3149 -2.3305,0 -2.3305,-2.3149 -2.3305,-2.3149"
           style="fill:#ffffff;fill-opacity:1;fill-rule:nonzero;stroke:none"
           id="path18133" /><path
           inkscape:connector-curvature="0"
           d="m 483.5779,74.1858 -0.6836,0 c 0.233,3.0142 3.0141,3.0142 3.0141,3.0142 2.9985,-0.2176 2.9985,-3.0142 2.9985,-3.0142 l -0.6836,0 c -0.2176,2.3149 -2.3149,2.3149 -2.3149,2.3149 -2.3305,0 -2.3305,-2.3149 -2.3305,-2.3149 z"
           style="fill:none;stroke:#ffffff;stroke-width:0.03108;stroke-linecap:butt;stroke-linejoin:miter;stroke-miterlimit:3.86369991;stroke-opacity:1;stroke-dasharray:none"
           id="path18135" /><path
           inkscape:connector-curvature="0"
           d="m 480.5794,80.6801 10.6424,0 0,0.4659 -10.6424,0 0,-0.4659 z"
           style="fill:#ffffff;fill-opacity:1;fill-rule:nonzero;stroke:none"
           id="path18137" /><path
           inkscape:connector-curvature="0"
           d="m 480.5794,80.6801 10.6424,0 0,0.4659 -10.6424,0 0,-0.4659 z"
           style="fill:none;stroke:#ffffff;stroke-width:0.03108;stroke-linecap:butt;stroke-linejoin:miter;stroke-miterlimit:3.86369991;stroke-opacity:1;stroke-dasharray:none"
           id="path18139" /><path
           inkscape:connector-curvature="0"
           d="m 480.5794,81.6122 0,4.3967 2.2217,0 0,-2.0818 1.9421,0 0,2.0818 2.3304,0 0,-2.0818 1.942,0 0,2.0818 2.2217,0 0,-4.3967"
           style="fill:#ffffff;fill-opacity:1;fill-rule:nonzero;stroke:none"
           id="path18141" /><path
           inkscape:connector-curvature="0"
           d="m 480.5794,81.6122 0,4.3967 2.2217,0 0,-2.0818 1.9421,0 0,2.0818 2.3304,0 0,-2.0818 1.942,0 0,2.0818 2.2217,0 0,-4.3967 -10.6579,0 z"
           style="fill:none;stroke:#ffffff;stroke-width:0.03108;stroke-linecap:butt;stroke-linejoin:miter;stroke-miterlimit:3.86369991;stroke-opacity:1;stroke-dasharray:none"
           id="path18143" /><path
           inkscape:connector-curvature="0"
           d="m 480.0356,82.8395 -2.144,0 -0.6525,-2.8588 3.185,0 0,0.4041 -0.3885,0"
           style="fill:#ffffff;fill-opacity:1;fill-rule:nonzero;stroke:none"
           id="path18145" /><path
           inkscape:connector-curvature="0"
           d="m 480.0356,82.8395 -2.144,0 -0.6525,-2.8588 3.185,0 0,0.4041 -0.3885,0 0,2.4547 z"
           style="fill:none;stroke:#ffffff;stroke-width:0.03108;stroke-linecap:butt;stroke-linejoin:miter;stroke-miterlimit:3.86369991;stroke-opacity:1;stroke-dasharray:none"
           id="path18147" /><path
           inkscape:connector-curvature="0"
           d="m 480.4241,79.5613 -3.3559,0 -0.233,-2.3613 3.5889,0"
           style="fill:#ffffff;fill-opacity:1;fill-rule:nonzero;stroke:none"
           id="path18149" /><path
           inkscape:connector-curvature="0"
           d="m 480.4241,79.5613 -3.3559,0 -0.233,-2.3613 3.5889,0 0,2.3613 z"
           style="fill:none;stroke:#ffffff;stroke-width:0.03108;stroke-linecap:butt;stroke-linejoin:miter;stroke-miterlimit:3.86369991;stroke-opacity:1;stroke-dasharray:none"
           id="path18151" /><path
           inkscape:connector-curvature="0"
           d="m 476.9128,76.1278 3.5112,0 0,0.6525 -3.5112,0 0,-0.6525 z"
           style="fill:#ffffff;fill-opacity:1;fill-rule:nonzero;stroke:none"
           id="path18153" /><path
           inkscape:connector-curvature="0"
           d="m 476.9128,76.1278 3.5112,0 0,0.6525 -3.5112,0 0,-0.6525 z"
           style="fill:none;stroke:#ffffff;stroke-width:0.03108;stroke-linecap:butt;stroke-linejoin:miter;stroke-miterlimit:3.86369991;stroke-opacity:1;stroke-dasharray:none"
           id="path18155" /><path
           inkscape:connector-curvature="0"
           d="m 476.7419,75.4287 3.6821,0 0,0.2952 -3.6821,0 0,-0.2952 z"
           style="fill:#ffffff;fill-opacity:1;fill-rule:nonzero;stroke:none"
           id="path18157" /><path
           inkscape:connector-curvature="0"
           d="m 476.7419,75.4287 3.6821,0 0,0.2952 -3.6821,0 0,-0.2952 z"
           style="fill:none;stroke:#ffffff;stroke-width:0.03108;stroke-linecap:butt;stroke-linejoin:miter;stroke-miterlimit:3.86369991;stroke-opacity:1;stroke-dasharray:none"
           id="path18159" /><path
           inkscape:connector-curvature="0"
           d="m 480.4241,74.9781 -3.5113,0 0.1554,-2.2838 2.9985,0 -0.1088,0.3107 0,1.1964 0.4662,0"
           style="fill:#ffffff;fill-opacity:1;fill-rule:nonzero;stroke:none"
           id="path18161" /><path
           inkscape:connector-curvature="0"
           d="m 480.4241,74.9781 -3.5113,0 0.1554,-2.2838 2.9985,0 -0.1088,0.3107 0,1.1964 0.4662,0 0,0.7767 z"
           style="fill:none;stroke:#ffffff;stroke-width:0.03108;stroke-linecap:butt;stroke-linejoin:miter;stroke-miterlimit:3.86369991;stroke-opacity:1;stroke-dasharray:none"
           id="path18163" /><path
           inkscape:connector-curvature="0"
           d="m 477.0682,72.1971 0.4972,-2.6101 2.9519,0 0,2.1285 -0.2176,0.4816"
           style="fill:#ffffff;fill-opacity:1;fill-rule:nonzero;stroke:none"
           id="path18165" /><path
           inkscape:connector-curvature="0"
           d="m 477.0682,72.1971 0.4972,-2.6101 2.9519,0 0,2.1285 -0.2176,0.4816 -3.2315,0 z"
           style="fill:none;stroke:#ffffff;stroke-width:0.03108;stroke-linecap:butt;stroke-linejoin:miter;stroke-miterlimit:3.86369991;stroke-opacity:1;stroke-dasharray:none"
           id="path18167" /><path
           inkscape:connector-curvature="0"
           d="m 480.5173,69.09 -2.6257,0 0.8235,-2.4549 1.8022,0"
           style="fill:#ffffff;fill-opacity:1;fill-rule:nonzero;stroke:none"
           id="path18169" /><path
           inkscape:connector-curvature="0"
           d="m 480.5173,69.09 -2.6257,0 0.8235,-2.4549 1.8022,0 0,2.4549 z"
           style="fill:none;stroke:#ffffff;stroke-width:0.03108;stroke-linecap:butt;stroke-linejoin:miter;stroke-miterlimit:3.86369991;stroke-opacity:1;stroke-dasharray:none"
           id="path18171" /><path
           inkscape:connector-curvature="0"
           d="m 480.5173,66.1536 -1.8022,0 1.8022,-3.4336"
           style="fill:#ffffff;fill-opacity:1;fill-rule:nonzero;stroke:none"
           id="path18173" /><path
           inkscape:connector-curvature="0"
           d="m 480.5173,66.1536 -1.8022,0 1.8022,-3.4336 0,3.4336 z"
           style="fill:none;stroke:#ffffff;stroke-width:0.03108;stroke-linecap:butt;stroke-linejoin:miter;stroke-miterlimit:3.86369991;stroke-opacity:1;stroke-dasharray:none"
           id="path18175" /><path
           inkscape:connector-curvature="0"
           d="m 491.4082,63.4968 c 2.3305,0.6215 3.5733,0.6215 3.5733,0.6215 2.346,0 4.4435,-1.1187 4.8008,-1.2429 0.87,-0.373 1.74,-0.4816 1.74,-0.4816 1.1032,-0.1398 2.3305,0.4816 2.3305,0.4816 2.346,1.1186 3.216,0.9942 3.216,0.9942 1.2274,0 1.7245,-0.2484 1.7245,-0.2484 l 2.5791,-0.9944 c 1.7245,-0.6837 3.3403,0.1243 3.3403,0.1243 1.7401,0.7146 2.8276,0.9943 2.8276,0.9943 1.8489,0.2486 2.346,-0.2486 2.5946,-0.2486 2.983,-1.0565 3.5734,-0.87 3.5734,-0.87 l -1.2275,-1.9731 c -1.1963,0.3418 -2.3459,0.7457 -2.3459,0.7457 -1.3517,0.5437 -2.5946,0.2487 -2.5946,0.2487 0.2486,0.1241 -1.6934,-0.4972 -2.812,-0.9944 -1.9732,-0.8855 -3.589,-0.0155 -3.5423,-0.0466 -0.0467,0.0311 -2.3927,0.9166 -2.3927,0.9166 -0.4971,0.2485 -1.7245,0.2485 -1.7245,0.2485 -0.9943,0.1244 -3.216,-0.9944 -3.216,-0.9944 -1.7245,-0.7299 -2.3305,-0.4814 -2.3305,-0.4814 0,0 -0.87,0.1086 -1.74,0.4814 -2.5791,1.2431 -4.8008,1.2431 -4.8008,1.2431 -1.2428,0 -3.5733,-0.6215 -3.5733,-0.6215"
           style="fill:#ffffff;fill-opacity:1;fill-rule:nonzero;stroke:none"
           id="path18177" /><path
           inkscape:connector-curvature="0"
           d="m 491.4082,63.4968 c 2.3305,0.6215 3.5733,0.6215 3.5733,0.6215 2.346,0 4.4435,-1.1187 4.8008,-1.2429 0.87,-0.373 1.74,-0.4816 1.74,-0.4816 1.1032,-0.1398 2.3305,0.4816 2.3305,0.4816 2.346,1.1186 3.216,0.9942 3.216,0.9942 1.2274,0 1.7245,-0.2484 1.7245,-0.2484 l 2.5791,-0.9944 c 1.7245,-0.6837 3.3403,0.1243 3.3403,0.1243 1.7401,0.7146 2.8276,0.9943 2.8276,0.9943 1.8489,0.2486 2.346,-0.2486 2.5946,-0.2486 2.983,-1.0565 3.5734,-0.87 3.5734,-0.87 l -1.2275,-1.9731 c -1.1963,0.3418 -2.3459,0.7457 -2.3459,0.7457 -1.3517,0.5437 -2.5946,0.2487 -2.5946,0.2487 0.2486,0.1241 -1.6934,-0.4972 -2.812,-0.9944 -1.9732,-0.8855 -3.589,-0.0155 -3.5423,-0.0466 -0.0467,0.0311 -2.3927,0.9166 -2.3927,0.9166 -0.4971,0.2485 -1.7245,0.2485 -1.7245,0.2485 -0.9943,0.1244 -3.216,-0.9944 -3.216,-0.9944 -1.7245,-0.7299 -2.3305,-0.4814 -2.3305,-0.4814 0,0 -0.87,0.1086 -1.74,0.4814 -2.5791,1.2431 -4.8008,1.2431 -4.8008,1.2431 -1.2428,0 -3.5733,-0.6215 -3.5733,-0.6215 l 0,2.0974 z"
           style="fill:none;stroke:#ffffff;stroke-width:0.03108;stroke-linecap:butt;stroke-linejoin:miter;stroke-miterlimit:3.86369991;stroke-opacity:1;stroke-dasharray:none"
           id="path18179" /><path
           inkscape:connector-curvature="0"
           d="m 491.4082,59.9235 c 1.7712,0.4815 3.5889,0.6214 3.5889,0.6214 2.8121,-0.1864 4.7852,-1.2739 4.7852,-1.2739 0.7457,-0.2952 1.74,-0.4816 1.74,-0.4816 1.2274,-0.109 2.3305,0.4816 2.3305,0.4816 2.0508,1.0409 3.216,1.0254 3.216,1.0254 1.3051,-0.0311 1.7245,-0.2642 1.7245,-0.2642 l 2.5791,-0.9944 c 1.6313,-0.6524 3.3403,0.1399 3.3403,0.1399 2.1906,0.8855 2.8276,0.9944 2.8276,0.9944 1.4294,0.2952 2.5946,-0.2486 2.5946,-0.2486 l 1.3516,-0.4506 -1.74,-1.74 c -1.1963,0.4351 -2.2062,0.0933 -2.2062,0.0933 -1.2274,-0.3264 -2.8276,-0.9944 -2.8276,-0.9944 -1.8489,-0.8079 -3.3403,-0.1244 -3.3403,-0.1244 l -2.5791,0.9943 c -0.6214,0.2487 -1.7866,0.2487 -1.7866,0.2487 -1.3051,-0.0466 -3.1539,-0.9943 -3.1539,-0.9943 -1.3983,-0.6836 -2.3305,-0.4971 -2.3305,-0.4971 -0.7457,0.062 -1.74,0.4971 -1.74,0.4971 -2.9053,1.2894 -4.8008,1.2429 -4.8008,1.2429 -2.0041,-0.1555 -3.5733,-0.6215 -3.5733,-0.6215"
           style="fill:#ffffff;fill-opacity:1;fill-rule:nonzero;stroke:none"
           id="path18181" /><path
           inkscape:connector-curvature="0"
           d="m 491.4082,59.9235 c 1.7712,0.4815 3.5889,0.6214 3.5889,0.6214 2.8121,-0.1864 4.7852,-1.2739 4.7852,-1.2739 0.7457,-0.2952 1.74,-0.4816 1.74,-0.4816 1.2274,-0.109 2.3305,0.4816 2.3305,0.4816 2.0508,1.0409 3.216,1.0254 3.216,1.0254 1.3051,-0.0311 1.7245,-0.2642 1.7245,-0.2642 l 2.5791,-0.9944 c 1.6313,-0.6524 3.3403,0.1399 3.3403,0.1399 2.1906,0.8855 2.8276,0.9944 2.8276,0.9944 1.4294,0.2952 2.5946,-0.2486 2.5946,-0.2486 l 1.3516,-0.4506 -1.74,-1.74 c -1.1963,0.4351 -2.2062,0.0933 -2.2062,0.0933 -1.2274,-0.3264 -2.8276,-0.9944 -2.8276,-0.9944 -1.8489,-0.8079 -3.3403,-0.1244 -3.3403,-0.1244 l -2.5791,0.9943 c -0.6214,0.2487 -1.7866,0.2487 -1.7866,0.2487 -1.3051,-0.0466 -3.1539,-0.9943 -3.1539,-0.9943 -1.3983,-0.6836 -2.3305,-0.4971 -2.3305,-0.4971 -0.7457,0.062 -1.74,0.4971 -1.74,0.4971 -2.9053,1.2894 -4.8008,1.2429 -4.8008,1.2429 -2.0041,-0.1555 -3.5733,-0.6215 -3.5733,-0.6215 l 0,2.346 z"
           style="fill:none;stroke:#ffffff;stroke-width:0.03108;stroke-linecap:butt;stroke-linejoin:miter;stroke-miterlimit:3.86369991;stroke-opacity:1;stroke-dasharray:none"
           id="path18183" /><path
           inkscape:connector-curvature="0"
           d="m 491.4082,56.2102 c 2.5635,0.6526 3.5733,0.6216 3.5733,0.6216 2.4859,-0.0776 4.5056,-1.1497 4.8008,-1.2429 0.6991,-0.3108 1.4914,-0.4507 1.74,-0.4816 1.1808,-0.171 2.3305,0.4972 2.3305,0.4972 2.5014,1.1497 3.216,0.9788 3.216,0.9788 1.0565,0.031 1.7245,-0.2488 1.7245,-0.2488 l 2.5791,-0.9788 c 1.6779,-0.668 3.3403,0.1245 3.3403,0.1245 2.2373,0.8389 2.3305,0.8855 2.8276,0.9788 0.4505,0.1086 1.1031,0.1709 1.1031,0.1709 0,0 -3.0762,-2.2063 -5.9504,-3.7444 -0.1398,0 -0.3729,-0.0621 -1.3206,0.2485 0,-0.0155 -2.5791,0.9944 -2.5791,0.9944 -0.7768,0.2642 -1.7245,0.2486 -1.7245,0.2486 -1.1652,0.0156 -3.216,-0.9943 -3.216,-0.9943 0,0 -1.0565,-0.6215 -2.3305,-0.5127 -0.1553,0.0466 -0.4971,0.0466 -1.74,0.4972 -2.5635,1.2273 -4.8008,1.2428 -4.8008,1.2428 -1.305,-0.0155 -3.5733,-0.606 -3.5733,-0.606"
           style="fill:#ffffff;fill-opacity:1;fill-rule:nonzero;stroke:none"
           id="path18185" /><path
           inkscape:connector-curvature="0"
           d="m 491.4082,56.2102 c 2.5635,0.6526 3.5733,0.6216 3.5733,0.6216 2.4859,-0.0776 4.5056,-1.1497 4.8008,-1.2429 0.6991,-0.3108 1.4914,-0.4507 1.74,-0.4816 1.1808,-0.171 2.3305,0.4972 2.3305,0.4972 2.5014,1.1497 3.216,0.9788 3.216,0.9788 1.0565,0.031 1.7245,-0.2488 1.7245,-0.2488 l 2.5791,-0.9788 c 1.6779,-0.668 3.3403,0.1245 3.3403,0.1245 2.2373,0.8389 2.3305,0.8855 2.8276,0.9788 0.4505,0.1086 1.1031,0.1709 1.1031,0.1709 0,0 -3.0762,-2.2063 -5.9504,-3.7444 -0.1398,0 -0.3729,-0.0621 -1.3206,0.2485 0,-0.0155 -2.5791,0.9944 -2.5791,0.9944 -0.7768,0.2642 -1.7245,0.2486 -1.7245,0.2486 -1.1652,0.0156 -3.216,-0.9943 -3.216,-0.9943 0,0 -1.0565,-0.6215 -2.3305,-0.5127 -0.1553,0.0466 -0.4971,0.0466 -1.74,0.4972 -2.5635,1.2273 -4.8008,1.2428 -4.8008,1.2428 -1.305,-0.0155 -3.5733,-0.606 -3.5733,-0.606 l 0,2.2062 z"
           style="fill:none;stroke:#ffffff;stroke-width:0.03108;stroke-linecap:butt;stroke-linejoin:miter;stroke-miterlimit:3.86369991;stroke-opacity:1;stroke-dasharray:none"
           id="path18187" /><path
           inkscape:connector-curvature="0"
           d="m 492.0452,52.8079 c 1.6779,0.4039 2.9363,0.4505 2.9363,0.4505 2.3927,-0.0466 4.459,-1.1341 4.8008,-1.2274 1.0409,-0.4506 1.74,-0.4972 1.74,-0.4972 1.2274,-0.1553 2.3305,0.4972 2.3305,0.4972 2.3926,1.1343 3.1383,0.9321 3.216,0.9788 1.1497,0 1.7245,-0.2486 1.7245,-0.2486 L 510.5023,52 c -9.881,-3.3248 -18.4571,0.8079 -18.4571,0.8079"
           style="fill:#ffffff;fill-opacity:1;fill-rule:nonzero;stroke:none"
           id="path18189" /><path
           inkscape:connector-curvature="0"
           d="m 492.0452,52.8079 c 1.6779,0.4039 2.9363,0.4505 2.9363,0.4505 2.3927,-0.0466 4.459,-1.1341 4.8008,-1.2274 1.0409,-0.4506 1.74,-0.4972 1.74,-0.4972 1.2274,-0.1553 2.3305,0.4972 2.3305,0.4972 2.3926,1.1343 3.1383,0.9321 3.216,0.9788 1.1497,0 1.7245,-0.2486 1.7245,-0.2486 L 510.5023,52 c -9.881,-3.3248 -18.4571,0.8079 -18.4571,0.8079 z"
           style="fill:none;stroke:#ffffff;stroke-width:0.03108;stroke-linecap:butt;stroke-linejoin:miter;stroke-miterlimit:3.86369991;stroke-opacity:1;stroke-dasharray:none"
           id="path18191" /><path
           inkscape:connector-curvature="0"
           d="m 507.8654,99.7875 0.3897,0.0324 0.1937,-6.2652 -0.7134,0"
           style="fill:#ffffff;fill-opacity:1;fill-rule:nonzero;stroke:none"
           id="path18193" /><path
           inkscape:connector-curvature="0"
           d="m 508.6149,85.9995 c 0.265,-5.3677 0.3727,-11.5879 0.3231,-16.2789 -0.9633,0.0155 -1.7516,0.1221 -1.7516,0.1221 0,-0.0156 0.0407,1.043 0.0407,1.043 l 1.0771,-0.0855 0,0.3105 -1.0894,1.5869 0.3109,11.968"
           style="fill:#ffffff;fill-opacity:1;fill-rule:nonzero;stroke:none"
           id="path18195" /><path
           inkscape:connector-curvature="0"
           d="m 508.6149,85.9995 c 0.265,-5.3677 0.3727,-11.5879 0.3231,-16.2789 -0.9633,0.0155 -1.7516,0.1221 -1.7516,0.1221 0,-0.0156 0.0407,1.043 0.0407,1.043 l 1.0771,-0.0855 0,0.3105 -1.0894,1.5869 0.3109,11.968 1.0892,1.3339 z"
           style="fill:none;stroke:#ffffff;stroke-width:0.15539999;stroke-linecap:butt;stroke-linejoin:miter;stroke-miterlimit:3.86369991;stroke-opacity:1;stroke-dasharray:none"
           id="path18197" /><path
           inkscape:connector-curvature="0"
           d="m 493.1638,80.0897 c 0,-9.6482 3.7598,-15.2102 3.7598,-15.2102 l -0.8079,0.1554 c -4.4278,6.5408 -3.9307,15.0548 -3.9307,15.0548"
           style="fill:#ffffff;fill-opacity:1;fill-rule:nonzero;stroke:none"
           id="path18199" /><path
           inkscape:connector-curvature="0"
           d="m 493.1638,80.0897 c 0,-9.6482 3.7598,-15.2102 3.7598,-15.2102 l -0.8079,0.1554 c -4.4278,6.5408 -3.9307,15.0548 -3.9307,15.0548 l 0.9788,0 z"
           style="fill:none;stroke:#ffffff;stroke-width:0.15539999;stroke-linecap:butt;stroke-linejoin:miter;stroke-miterlimit:3.86369991;stroke-opacity:1;stroke-dasharray:none"
           id="path18201" /><path
           inkscape:connector-curvature="0"
           d="m 525.5415,81.0685 0.9943,0.0155 c 0.1554,-9.5083 -6.0591,-16.7016 -6.0591,-16.7016 l -0.8545,0.1398 c 5.4066,7.1933 5.9193,16.5463 5.9193,16.5463"
           style="fill:#ffffff;fill-opacity:1;fill-rule:nonzero;stroke:none"
           id="path18203" /><path
           inkscape:connector-curvature="0"
           d="m 525.5415,81.0685 0.9943,0.0155 c 0.1554,-9.5083 -6.0591,-16.7016 -6.0591,-16.7016 l -0.8545,0.1398 c 5.4066,7.1933 5.9193,16.5463 5.9193,16.5463 z"
           style="fill:none;stroke:#ffffff;stroke-width:0.15539999;stroke-linecap:butt;stroke-linejoin:miter;stroke-miterlimit:3.86369991;stroke-opacity:1;stroke-dasharray:none"
           id="path18205" /><path
           inkscape:connector-curvature="0"
           d="m 494.3601,72.9585 c 17.6649,-8.8402 29.1773,0.5903 29.1773,0.5903 -0.4972,-1.3362 -1.1498,-2.7965 -1.1498,-2.7965 -13.7341,-7.3797 -27.375,0 -27.375,0"
           style="fill:#ffffff;fill-opacity:1;fill-rule:nonzero;stroke:none"
           id="path18207" /><path
           inkscape:connector-curvature="0"
           d="m 494.3601,72.9585 c 17.6649,-8.8402 29.1773,0.5903 29.1773,0.5903 -0.4972,-1.3362 -1.1498,-2.7965 -1.1498,-2.7965 -13.7341,-7.3797 -27.375,0 -27.375,0 l -0.6525,2.2062 z"
           style="fill:none;stroke:#ffffff;stroke-width:0.15539999;stroke-linecap:butt;stroke-linejoin:miter;stroke-miterlimit:3.86369991;stroke-opacity:1;stroke-dasharray:none"
           id="path18209" /><path
           inkscape:connector-curvature="0"
           d="m 495.3389,69.8202 c 16.6861,-6.9138 26.8778,0.1396 26.8778,0.1396 l -1.1341,-2.0506 C 508.2807,61.4772 496.007,68.049 496.007,68.049"
           style="fill:#ffffff;fill-opacity:1;fill-rule:nonzero;stroke:none"
           id="path18211" /><path
           inkscape:connector-curvature="0"
           d="m 495.3389,69.8202 c 16.6861,-6.9138 26.8778,0.1396 26.8778,0.1396 l -1.1341,-2.0506 C 508.2807,61.4772 496.007,68.049 496.007,68.049 l -0.6681,1.7712 z"
           style="fill:none;stroke:#ffffff;stroke-width:0.15539999;stroke-linecap:butt;stroke-linejoin:miter;stroke-miterlimit:3.86369991;stroke-opacity:1;stroke-dasharray:none"
           id="path18213" /><path
           inkscape:connector-curvature="0"
           d="m 499.7823,63.6212 c 1.0875,-0.4507 1.74,-0.4973 1.74,-0.4973 0.4817,-0.093 1.2274,0.0933 1.2274,0.0933 -3.651,0.9011 -5.4222,1.7246 -5.4222,1.7246 0.0467,-0.2953 0.1399,-0.4817 0.1399,-0.4817 0.6991,-0.1554 2.3149,-0.8389 2.3149,-0.8389"
           style="fill:#ffffff;fill-opacity:1;fill-rule:nonzero;stroke:none"
           id="path18215" /><path
           inkscape:connector-curvature="0"
           d="m 499.7823,63.6212 c 1.0875,-0.4507 1.74,-0.4973 1.74,-0.4973 0.4817,-0.093 1.2274,0.0933 1.2274,0.0933 -3.651,0.9011 -5.4222,1.7246 -5.4222,1.7246 0.0467,-0.2953 0.1399,-0.4817 0.1399,-0.4817 0.6991,-0.1554 2.3149,-0.8389 2.3149,-0.8389 z"
           style="fill:none;stroke:#ffffff;stroke-width:0.15539999;stroke-linecap:butt;stroke-linejoin:miter;stroke-miterlimit:3.86369991;stroke-opacity:1;stroke-dasharray:none"
           id="path18217" /><path
           inkscape:connector-curvature="0"
           d="m 497.1877,65.5321 c 2.4703,-1.072 6.5097,-2.0198 6.5097,-2.0198 0.2486,0.1089 0.3574,0.1554 0.3574,0.1554 1.0254,0.4972 2.0197,0.7924 2.1595,0.839 -6.0591,0.8389 -9.9122,2.6878 -9.9122,2.6878"
           style="fill:#ffffff;fill-opacity:1;fill-rule:nonzero;stroke:none"
           id="path18219" /><path
           inkscape:connector-curvature="0"
           d="m 497.1877,65.5321 c 2.4703,-1.072 6.5097,-2.0198 6.5097,-2.0198 0.2486,0.1089 0.3574,0.1554 0.3574,0.1554 1.0254,0.4972 2.0197,0.7924 2.1595,0.839 -6.0591,0.8389 -9.9122,2.6878 -9.9122,2.6878 l 0.8856,-1.6624 z"
           style="fill:none;stroke:#ffffff;stroke-width:0.15539999;stroke-linecap:butt;stroke-linejoin:miter;stroke-miterlimit:3.86369991;stroke-opacity:1;stroke-dasharray:none"
           id="path18221" /><path
           inkscape:connector-curvature="0"
           d="m 508.9176,64.3047 c 0.7303,-0.2485 2.4548,-0.9321 2.4548,-0.9321 1.8799,-0.6836 3.0141,0.0931 3.3403,0.1242 1.3051,0.5128 2.7344,1.0099 2.8276,0.9943 0.6991,0.1089 1.3827,0.0466 1.3827,0.0466 0.9478,1.3518 1.6624,2.4859 1.6624,2.4859 -3.3403,-1.5848 -4.8007,-1.8023 -5.8727,-2.0818 -1.8022,-0.3885 -5.7951,-0.6371 -5.7951,-0.6371"
           style="fill:#ffffff;fill-opacity:1;fill-rule:nonzero;stroke:none"
           id="path18223" /><path
           inkscape:connector-curvature="0"
           d="m 508.9176,64.3047 c 0.7303,-0.2485 2.4548,-0.9321 2.4548,-0.9321 1.8799,-0.6836 3.0141,0.0931 3.3403,0.1242 1.3051,0.5128 2.7344,1.0099 2.8276,0.9943 0.6991,0.1089 1.3827,0.0466 1.3827,0.0466 0.9478,1.3518 1.6624,2.4859 1.6624,2.4859 -3.3403,-1.5848 -4.8007,-1.8023 -5.8727,-2.0818 -1.8022,-0.3885 -5.7951,-0.6371 -5.7951,-0.6371 z"
           style="fill:none;stroke:#ffffff;stroke-width:0.15539999;stroke-linecap:butt;stroke-linejoin:miter;stroke-miterlimit:3.86369991;stroke-opacity:1;stroke-dasharray:none"
           id="path18225" /><path
           inkscape:connector-curvature="0"
           d="m 491.4238,59.9235 c 1.7711,0.4815 3.5733,0.6214 3.5733,0.6214 2.8121,-0.1864 4.7852,-1.2739 4.7852,-1.2739 0.7457,-0.2952 1.74,-0.4816 1.74,-0.4816 1.2274,-0.109 2.3305,0.4816 2.3305,0.4816 2.0508,1.0409 3.216,1.0254 3.216,1.0254 1.3051,-0.0311 1.7245,-0.2642 1.7245,-0.2642 l 2.5791,-0.9944 c 1.6313,-0.6524 3.3403,0.1399 3.3403,0.1399 2.1906,0.8855 2.8276,0.9944 2.8276,0.9944 1.4294,0.2952 2.5946,-0.2486 2.5946,-0.2486 l 1.3516,-0.4506 0.9788,1.1808 0.0155,0 c -1.1963,0.3418 -2.3459,0.7457 -2.3459,0.7457 -1.3517,0.5437 -2.5946,0.2487 -2.5946,0.2487 0.2486,0.1241 -1.6934,-0.4972 -2.812,-0.9944 -1.9732,-0.8855 -3.589,-0.0155 -3.5423,-0.0466 -0.0467,0.0311 -2.3927,0.9166 -2.3927,0.9166 -0.4971,0.2485 -1.7245,0.2485 -1.7245,0.2485 -0.9943,0.1244 -3.216,-0.9944 -3.216,-0.9944 -1.7245,-0.7299 -2.3305,-0.4814 -2.3305,-0.4814 0,0 -0.87,0.1086 -1.74,0.4814 -2.5791,1.2431 -4.8008,1.2431 -4.8008,1.2431 -1.2428,0 -3.5733,-0.6215 -3.5733,-0.6215"
           style="fill:#abaaaa;fill-opacity:1;fill-rule:nonzero;stroke:none"
           id="path18227" /><path
           inkscape:connector-curvature="0"
           d="m 491.4238,59.9235 c 1.7711,0.4815 3.5733,0.6214 3.5733,0.6214 2.8121,-0.1864 4.7852,-1.2739 4.7852,-1.2739 0.7457,-0.2952 1.74,-0.4816 1.74,-0.4816 1.2274,-0.109 2.3305,0.4816 2.3305,0.4816 2.0508,1.0409 3.216,1.0254 3.216,1.0254 1.3051,-0.0311 1.7245,-0.2642 1.7245,-0.2642 l 2.5791,-0.9944 c 1.6313,-0.6524 3.3403,0.1399 3.3403,0.1399 2.1906,0.8855 2.8276,0.9944 2.8276,0.9944 1.4294,0.2952 2.5946,-0.2486 2.5946,-0.2486 l 1.3516,-0.4506 0.9788,1.1808 0.0155,0 c -1.1963,0.3418 -2.3459,0.7457 -2.3459,0.7457 -1.3517,0.5437 -2.5946,0.2487 -2.5946,0.2487 0.2486,0.1241 -1.6934,-0.4972 -2.812,-0.9944 -1.9732,-0.8855 -3.589,-0.0155 -3.5423,-0.0466 -0.0467,0.0311 -2.3927,0.9166 -2.3927,0.9166 -0.4971,0.2485 -1.7245,0.2485 -1.7245,0.2485 -0.9943,0.1244 -3.216,-0.9944 -3.216,-0.9944 -1.7245,-0.7299 -2.3305,-0.4814 -2.3305,-0.4814 0,0 -0.87,0.1086 -1.74,0.4814 -2.5791,1.2431 -4.8008,1.2431 -4.8008,1.2431 -1.2428,0 -3.5733,-0.6215 -3.5733,-0.6215 l 0.0156,-1.4759 z"
           style="fill:none;stroke:#abaaaa;stroke-width:0.03108;stroke-linecap:butt;stroke-linejoin:miter;stroke-miterlimit:3.86369991;stroke-opacity:1;stroke-dasharray:none"
           id="path18229" /><path
           inkscape:connector-curvature="0"
           d="m 519.7465,57.7484 0,-0.0155 c -1.1963,0.4351 -2.2062,0.0933 -2.2062,0.0933 -1.2274,-0.3264 -2.8276,-0.9944 -2.8276,-0.9944 -1.8489,-0.8079 -3.3403,-0.1244 -3.3403,-0.1244 l -2.5791,0.9943 c -0.6214,0.2487 -1.7866,0.2487 -1.7866,0.2487 -1.3051,-0.0466 -3.1539,-0.9943 -3.1539,-0.9943 -1.3983,-0.6836 -2.3305,-0.4971 -2.3305,-0.4971 -0.7457,0.062 -1.74,0.4971 -1.74,0.4971 -2.9053,1.2894 -4.8008,1.2429 -4.8008,1.2429 -2.0041,-0.1555 -3.5577,-0.606 -3.5577,-0.606 l 0,-1.3672 c 2.5635,0.6526 3.5577,0.606 3.5577,0.606 2.4859,-0.0776 4.5056,-1.1497 4.8008,-1.2429 0.6991,-0.3108 1.4914,-0.4507 1.74,-0.4816 1.1808,-0.171 2.3305,0.4972 2.3305,0.4972 2.5014,1.1497 3.216,0.9788 3.216,0.9788 1.0565,0.031 1.7245,-0.2488 1.7245,-0.2488 l 2.5791,-0.9788 c 1.6779,-0.668 3.3403,0.1245 3.3403,0.1245 2.2373,0.8389 2.3305,0.8855 2.8276,0.9788 0.4505,0.1086 1.1031,0.1709 1.1031,0.1709"
           style="fill:#abaaaa;fill-opacity:1;fill-rule:nonzero;stroke:none"
           id="path18231" /><path
           inkscape:connector-curvature="0"
           d="m 519.7465,57.7484 0,-0.0155 c -1.1963,0.4351 -2.2062,0.0933 -2.2062,0.0933 -1.2274,-0.3264 -2.8276,-0.9944 -2.8276,-0.9944 -1.8489,-0.8079 -3.3403,-0.1244 -3.3403,-0.1244 l -2.5791,0.9943 c -0.6214,0.2487 -1.7866,0.2487 -1.7866,0.2487 -1.3051,-0.0466 -3.1539,-0.9943 -3.1539,-0.9943 -1.3983,-0.6836 -2.3305,-0.4971 -2.3305,-0.4971 -0.7457,0.062 -1.74,0.4971 -1.74,0.4971 -2.9053,1.2894 -4.8008,1.2429 -4.8008,1.2429 -2.0041,-0.1555 -3.5577,-0.606 -3.5577,-0.606 l 0,-1.3672 c 2.5635,0.6526 3.5577,0.606 3.5577,0.606 2.4859,-0.0776 4.5056,-1.1497 4.8008,-1.2429 0.6991,-0.3108 1.4914,-0.4507 1.74,-0.4816 1.1808,-0.171 2.3305,0.4972 2.3305,0.4972 2.5014,1.1497 3.216,0.9788 3.216,0.9788 1.0565,0.031 1.7245,-0.2488 1.7245,-0.2488 l 2.5791,-0.9788 c 1.6779,-0.668 3.3403,0.1245 3.3403,0.1245 2.2373,0.8389 2.3305,0.8855 2.8276,0.9788 0.4505,0.1086 1.1031,0.1709 1.1031,0.1709 l 1.1031,1.1185 z"
           style="fill:none;stroke:#abaaaa;stroke-width:0.03108;stroke-linecap:butt;stroke-linejoin:miter;stroke-miterlimit:3.86369991;stroke-opacity:1;stroke-dasharray:none"
           id="path18233" /><path
           inkscape:connector-curvature="0"
           d="m 512.6774,52.8855 0.0156,0 c -0.1398,0 -0.3729,-0.0621 -1.3206,0.2485 0,-0.0155 -2.5791,0.9944 -2.5791,0.9944 -0.7768,0.2642 -1.7245,0.2486 -1.7245,0.2486 -1.1652,0.0156 -3.216,-0.9943 -3.216,-0.9943 0,0 -1.0565,-0.6215 -2.3305,-0.5127 -0.1553,0.0466 -0.4971,0.0466 -1.74,0.4972 -2.5635,1.2273 -4.8008,1.2428 -4.8008,1.2428 -1.305,-0.0155 -3.5733,-0.606 -3.5733,-0.606 l 0.0156,0.0157 0,-0.9322 0.6214,-0.2796 c 1.6779,0.4039 2.9363,0.4505 2.9363,0.4505 2.3927,-0.0466 4.459,-1.1341 4.8008,-1.2274 1.0409,-0.4506 1.74,-0.4972 1.74,-0.4972 1.2274,-0.1553 2.3305,0.4972 2.3305,0.4972 2.3926,1.1343 3.1383,0.9321 3.216,0.9788 1.1497,0 1.7245,-0.2486 1.7245,-0.2486 L 510.5023,52"
           style="fill:#abaaaa;fill-opacity:1;fill-rule:nonzero;stroke:none"
           id="path18235" /><path
           inkscape:connector-curvature="0"
           d="m 512.6774,52.8855 0.0156,0 c -0.1398,0 -0.3729,-0.0621 -1.3206,0.2485 0,-0.0155 -2.5791,0.9944 -2.5791,0.9944 -0.7768,0.2642 -1.7245,0.2486 -1.7245,0.2486 -1.1652,0.0156 -3.216,-0.9943 -3.216,-0.9943 0,0 -1.0565,-0.6215 -2.3305,-0.5127 -0.1553,0.0466 -0.4971,0.0466 -1.74,0.4972 -2.5635,1.2273 -4.8008,1.2428 -4.8008,1.2428 -1.305,-0.0155 -3.5733,-0.606 -3.5733,-0.606 l 0.0156,0.0157 0,-0.9322 0.6214,-0.2796 c 1.6779,0.4039 2.9363,0.4505 2.9363,0.4505 2.3927,-0.0466 4.459,-1.1341 4.8008,-1.2274 1.0409,-0.4506 1.74,-0.4972 1.74,-0.4972 1.2274,-0.1553 2.3305,0.4972 2.3305,0.4972 2.3926,1.1343 3.1383,0.9321 3.216,0.9788 1.1497,0 1.7245,-0.2486 1.7245,-0.2486 l 1.709,-0.7612 2.1751,0.8855 z"
           style="fill:none;stroke:#abaaaa;stroke-width:0.03108;stroke-linecap:butt;stroke-linejoin:miter;stroke-miterlimit:3.86369991;stroke-opacity:1;stroke-dasharray:none"
           id="path18237" /><path
           inkscape:connector-curvature="0"
           d="m 491.4238,64.2736 0,-0.7613 c 2.3304,0.6215 3.5577,0.606 3.5577,0.606 2.346,0 4.4435,-1.1187 4.8008,-1.2429 0.87,-0.373 1.74,-0.4816 1.74,-0.4816 1.1032,-0.1398 2.3305,0.4816 2.3305,0.4816 2.346,1.1186 3.216,0.9942 3.216,0.9942 1.2274,0 1.7245,-0.2484 1.7245,-0.2484 l 2.5791,-0.9944 c 1.7245,-0.6837 3.3403,0.1243 3.3403,0.1243 1.7401,0.7146 2.8276,0.9943 2.8276,0.9943 1.8489,0.2486 2.346,-0.2486 2.5946,-0.2486 2.983,-1.0565 3.5734,-0.87 3.5734,-0.87 l 0.3883,0.7923 0.0311,0 c 0,0 -1.0098,-0.2331 -3.9928,0.8235 -0.2486,0 -0.7457,0.497 -2.5946,0.2485 0,0 -1.0875,-0.2796 -2.8276,-0.9943 0,0 -1.6158,-0.8078 -3.3403,-0.1242 l -2.5791,0.9942 c 0,0 -0.4971,0.2486 -1.7245,0.2486 0,0 -0.87,0.1242 -3.216,-0.9942 0,0 -1.2273,-0.6216 -2.3305,-0.4818 0,0 -0.87,0.109 -1.74,0.4818 -0.3573,0.1242 -2.4548,1.2428 -4.8008,1.2428 0,0 -1.2273,0.0311 -3.5577,-0.5904"
           style="fill:#abaaaa;fill-opacity:1;fill-rule:nonzero;stroke:none"
           id="path18239" /><path
           inkscape:connector-curvature="0"
           d="m 491.4238,64.2736 0,-0.7613 c 2.3304,0.6215 3.5577,0.606 3.5577,0.606 2.346,0 4.4435,-1.1187 4.8008,-1.2429 0.87,-0.373 1.74,-0.4816 1.74,-0.4816 1.1032,-0.1398 2.3305,0.4816 2.3305,0.4816 2.346,1.1186 3.216,0.9942 3.216,0.9942 1.2274,0 1.7245,-0.2484 1.7245,-0.2484 l 2.5791,-0.9944 c 1.7245,-0.6837 3.3403,0.1243 3.3403,0.1243 1.7401,0.7146 2.8276,0.9943 2.8276,0.9943 1.8489,0.2486 2.346,-0.2486 2.5946,-0.2486 2.983,-1.0565 3.5734,-0.87 3.5734,-0.87 l 0.3883,0.7923 0.0311,0 c 0,0 -1.0098,-0.2331 -3.9928,0.8235 -0.2486,0 -0.7457,0.497 -2.5946,0.2485 0,0 -1.0875,-0.2796 -2.8276,-0.9943 0,0 -1.6158,-0.8078 -3.3403,-0.1242 l -2.5791,0.9942 c 0,0 -0.4971,0.2486 -1.7245,0.2486 0,0 -0.87,0.1242 -3.216,-0.9942 0,0 -1.2273,-0.6216 -2.3305,-0.4818 0,0 -0.87,0.109 -1.74,0.4818 -0.3573,0.1242 -2.4548,1.2428 -4.8008,1.2428 0,0 -1.2273,0.0311 -3.5577,-0.5904 z"
           style="fill:none;stroke:#abaaaa;stroke-width:0.03108;stroke-linecap:butt;stroke-linejoin:miter;stroke-miterlimit:3.86369991;stroke-opacity:1;stroke-dasharray:none"
           id="path18241" /><path
           inkscape:connector-curvature="0"
           d="m 485.2093,79.1984 c 0,0.3839 0.3112,0.695 0.6951,0.695 0.3838,0 0.695,-0.3111 0.695,-0.695 0,-0.3839 -0.3112,-0.6951 -0.695,-0.6951 -0.3839,0 -0.6951,0.3112 -0.6951,0.6951"
           style="fill:#ef2c30;fill-opacity:1;fill-rule:nonzero;stroke:none"
           id="path18243" /><path
           inkscape:connector-curvature="0"
           d="m 485.2093,79.1984 c 0,0.3839 0.3112,0.695 0.6951,0.695 0.3838,0 0.695,-0.3111 0.695,-0.695 0,-0.3839 -0.3112,-0.6951 -0.695,-0.6951 -0.3839,0 -0.6951,0.3112 -0.6951,0.6951 z"
           style="fill:none;stroke:#ef2c30;stroke-width:0.03108;stroke-linecap:butt;stroke-linejoin:miter;stroke-miterlimit:3.86369991;stroke-opacity:1;stroke-dasharray:none"
           id="path18245" /><path
           inkscape:connector-curvature="0"
           d="m 482.6581,79.1984 c 0,0.3839 0.3111,0.695 0.695,0.695 0.3839,0 0.6951,-0.3111 0.6951,-0.695 0,-0.3839 -0.3112,-0.6951 -0.6951,-0.6951 -0.3839,0 -0.695,0.3112 -0.695,0.6951"
           style="fill:#ef2c30;fill-opacity:1;fill-rule:nonzero;stroke:none"
           id="path18247" /><path
           inkscape:connector-curvature="0"
           d="m 482.6581,79.1984 c 0,0.3839 0.3111,0.695 0.695,0.695 0.3839,0 0.6951,-0.3111 0.6951,-0.695 0,-0.3839 -0.3112,-0.6951 -0.6951,-0.6951 -0.3839,0 -0.695,0.3112 -0.695,0.6951 z"
           style="fill:none;stroke:#ef2c30;stroke-width:0.03108;stroke-linecap:butt;stroke-linejoin:miter;stroke-miterlimit:3.86369991;stroke-opacity:1;stroke-dasharray:none"
           id="path18249" /><path
           inkscape:connector-curvature="0"
           d="m 487.7605,79.1984 c 0,0.3839 0.3112,0.695 0.695,0.695 0.3839,0 0.6951,-0.3111 0.6951,-0.695 0,-0.3839 -0.3112,-0.6951 -0.6951,-0.6951 -0.3838,0 -0.695,0.3112 -0.695,0.6951"
           style="fill:#ef2c30;fill-opacity:1;fill-rule:nonzero;stroke:none"
           id="path18251" /><path
           inkscape:connector-curvature="0"
           d="m 487.7605,79.1984 c 0,0.3839 0.3112,0.695 0.695,0.695 0.3839,0 0.6951,-0.3111 0.6951,-0.695 0,-0.3839 -0.3112,-0.6951 -0.6951,-0.6951 -0.3838,0 -0.695,0.3112 -0.695,0.6951 z"
           style="fill:none;stroke:#ef2c30;stroke-width:0.03108;stroke-linecap:butt;stroke-linejoin:miter;stroke-miterlimit:3.86369991;stroke-opacity:1;stroke-dasharray:none"
           id="path18253" /><path
           inkscape:connector-curvature="0"
           d="m 476.8361,76.1156 c 0,14.0178 11.3634,25.3813 25.3813,25.3813 14.0179,0 25.3814,-11.3635 25.3814,-25.3813 0,-14.0179 -11.3635,-25.3813 -25.3814,-25.3813 -14.0179,0 -25.3813,11.3634 -25.3813,25.3813 z"
           style="fill:none;stroke:#ef2c30;stroke-width:0.3263;stroke-linecap:butt;stroke-linejoin:miter;stroke-miterlimit:3.86369991;stroke-opacity:1;stroke-dasharray:none"
           id="path18255" /><path
           inkscape:connector-curvature="0"
           d="m 507.351,99.1868 c 0,0 -10.1755,3.4067 -11.7161,-1.4827 -0.0669,-0.6699 -0.0669,-2.3445 -1.4735,-1.4067 -1.0047,1.1385 -2.4548,0.6648 -2.4548,0.6648 0,0 -2.6357,-0.3969 -4.1763,-4.2149 4.0189,3.7511 7.033,1.3397 7.033,1.3397 0,0 1.8085,-1.0716 1.8319,1.4685 0.1775,5.5645 10.9558,1.4017 10.9558,1.4017"
           style="fill:#ffffff;fill-opacity:1;fill-rule:nonzero;stroke:none"
           id="path18257" /><path
           inkscape:connector-curvature="0"
           d="m 510.6554,88.1581 c -0.0788,0.1086 -0.0118,0.2915 0.1496,0.4088 0.1615,0.1173 0.3562,0.1244 0.435,0.016 0.0788,-0.1085 0.0118,-0.2915 -0.1496,-0.4087 -0.1614,-0.1173 -0.3562,-0.1245 -0.435,-0.0161"
           style="fill:#ffffff;fill-opacity:1;fill-rule:nonzero;stroke:none"
           id="path18259" /><path
           inkscape:connector-curvature="0"
           d="m 511.6163,88.0381 c 0.0788,-0.1084 0.0118,-0.2914 -0.1497,-0.4087 -0.1614,-0.1172 -0.3561,-0.1245 -0.4349,-0.016 -0.0788,0.1085 -0.0119,0.2915 0.1496,0.4087 0.1614,0.1174 0.3562,0.1244 0.435,0.016"
           style="fill:#ffffff;fill-opacity:1;fill-rule:nonzero;stroke:none"
           id="path18261" /><path
           inkscape:connector-curvature="0"
           d="m 511.9924,87.4935 c 0.0788,-0.1084 0.0118,-0.2914 -0.1496,-0.4085 -0.1615,-0.1173 -0.3562,-0.1247 -0.435,-0.0162 -0.0788,0.1086 -0.0118,0.2916 0.1496,0.4087 0.1614,0.1175 0.3562,0.1246 0.435,0.016"
           style="fill:#ffffff;fill-opacity:1;fill-rule:nonzero;stroke:none"
           id="path18263" /><path
           inkscape:connector-curvature="0"
           d="m 512.3685,86.9491 c 0.0788,-0.1084 0.0119,-0.2914 -0.1496,-0.4087 -0.1615,-0.1172 -0.3562,-0.1245 -0.435,-0.016 -0.0788,0.1085 -0.0118,0.2914 0.1496,0.4087 0.1615,0.1173 0.3562,0.1245 0.435,0.016"
           style="fill:#ffffff;fill-opacity:1;fill-rule:nonzero;stroke:none"
           id="path18265" /><path
           inkscape:connector-curvature="0"
           d="m 512.7446,86.4045 c 0.0788,-0.1084 0.0118,-0.2912 -0.1496,-0.4087 -0.1614,-0.1171 -0.3562,-0.1245 -0.435,-0.0158 -0.0788,0.1084 -0.0118,0.2915 0.1496,0.4085 0.1615,0.1174 0.3562,0.1246 0.435,0.016"
           style="fill:#ffffff;fill-opacity:1;fill-rule:nonzero;stroke:none"
           id="path18267" /><path
           inkscape:connector-curvature="0"
           d="m 513.1209,85.8599 c 0.0788,-0.1084 0.0118,-0.2914 -0.1496,-0.4087 -0.1615,-0.1173 -0.3562,-0.1245 -0.435,-0.016 -0.0788,0.1084 -0.0118,0.2914 0.1496,0.4087 0.1615,0.1172 0.3562,0.1245 0.435,0.016"
           style="fill:#ffffff;fill-opacity:1;fill-rule:nonzero;stroke:none"
           id="path18269" /><path
           inkscape:connector-curvature="0"
           d="m 513.4971,85.3151 c 0.0788,-0.1084 0.0119,-0.2914 -0.1496,-0.4088 -0.1613,-0.1174 -0.3561,-0.1244 -0.435,-0.0159 -0.0787,0.1085 -0.0117,0.2914 0.1497,0.4087 0.1614,0.1173 0.3561,0.1244 0.4349,0.016"
           style="fill:#ffffff;fill-opacity:1;fill-rule:nonzero;stroke:none"
           id="path18271" /><path
           inkscape:connector-curvature="0"
           d="m 513.8733,84.7705 c 0.0788,-0.1084 0.0118,-0.2913 -0.1497,-0.4086 -0.1614,-0.1173 -0.3561,-0.1245 -0.4349,-0.016 -0.0789,0.1084 -0.0118,0.2913 0.1496,0.4087 0.1614,0.1173 0.3561,0.1246 0.435,0.0159"
           style="fill:#ffffff;fill-opacity:1;fill-rule:nonzero;stroke:none"
           id="path18273" /><path
           inkscape:connector-curvature="0"
           d="m 514.2495,84.2258 c 0.0789,-0.1084 0.0119,-0.2915 -0.1496,-0.4088 -0.1614,-0.117 -0.3562,-0.1244 -0.4349,-0.016 -0.0789,0.1087 -0.0119,0.2917 0.1496,0.4088 0.1614,0.1173 0.3561,0.1244 0.4349,0.016"
           style="fill:#ffffff;fill-opacity:1;fill-rule:nonzero;stroke:none"
           id="path18275" /><path
           inkscape:connector-curvature="0"
           d="m 514.6256,83.6814 c 0.0788,-0.1085 0.0119,-0.2916 -0.1496,-0.4089 -0.1614,-0.1171 -0.3561,-0.1244 -0.435,-0.016 -0.0788,0.1086 -0.0118,0.2916 0.1497,0.4088 0.1614,0.1173 0.3561,0.1246 0.4349,0.0161"
           style="fill:#ffffff;fill-opacity:1;fill-rule:nonzero;stroke:none"
           id="path18277" /><path
           inkscape:connector-curvature="0"
           d="m 515.0019,83.1366 c 0.0788,-0.1085 0.0118,-0.2915 -0.1496,-0.4088 -0.1614,-0.1173 -0.3561,-0.1244 -0.435,-0.0159 -0.0788,0.1085 -0.0118,0.2914 0.1496,0.4087 0.1614,0.1173 0.3562,0.1244 0.435,0.016"
           style="fill:#ffffff;fill-opacity:1;fill-rule:nonzero;stroke:none"
           id="path18279" /><path
           inkscape:connector-curvature="0"
           d="m 515.3782,82.5918 c 0.0788,-0.1084 0.0118,-0.2914 -0.1496,-0.4087 -0.1615,-0.1173 -0.3562,-0.1244 -0.435,-0.016 -0.0788,0.1084 -0.0119,0.2915 0.1496,0.4087 0.1614,0.1174 0.3562,0.1245 0.435,0.016"
           style="fill:#ffffff;fill-opacity:1;fill-rule:nonzero;stroke:none"
           id="path18281" /><path
           inkscape:connector-curvature="0"
           d="m 515.7543,82.0474 c 0.0788,-0.1086 0.0118,-0.2915 -0.1496,-0.4089 -0.1615,-0.1173 -0.3562,-0.1243 -0.435,-0.0159 -0.0788,0.1085 -0.0118,0.2915 0.1496,0.4088 0.1614,0.1173 0.3562,0.1244 0.435,0.016"
           style="fill:#ffffff;fill-opacity:1;fill-rule:nonzero;stroke:none"
           id="path18283" /><path
           inkscape:connector-curvature="0"
           d="m 516.1306,81.5027 c 0.0788,-0.1085 0.0118,-0.2916 -0.1497,-0.4088 -0.1614,-0.1173 -0.3561,-0.1245 -0.4349,-0.0161 -0.0788,0.1085 -0.0119,0.2916 0.1496,0.4089 0.1614,0.1172 0.3562,0.1244 0.435,0.016"
           style="fill:#ffffff;fill-opacity:1;fill-rule:nonzero;stroke:none"
           id="path18285" /><path
           inkscape:connector-curvature="0"
           d="m 516.5068,80.9579 c 0.0788,-0.1084 0.0118,-0.2914 -0.1496,-0.4088 -0.1614,-0.1173 -0.3562,-0.1244 -0.435,-0.0159 -0.0788,0.1084 -0.0118,0.2914 0.1496,0.4087 0.1615,0.1173 0.3562,0.1244 0.435,0.016"
           style="fill:#ffffff;fill-opacity:1;fill-rule:nonzero;stroke:none"
           id="path18287" /><path
           inkscape:connector-curvature="0"
           d="m 516.8829,80.4133 c 0.0788,-0.1084 0.0118,-0.2914 -0.1496,-0.4088 -0.1614,-0.1173 -0.3562,-0.1244 -0.435,-0.0159 -0.0788,0.1084 -0.0118,0.2914 0.1496,0.4087 0.1615,0.1173 0.3562,0.1244 0.435,0.016"
           style="fill:#ffffff;fill-opacity:1;fill-rule:nonzero;stroke:none"
           id="path18289" /><path
           inkscape:connector-curvature="0"
           d="m 517.2592,79.8687 c 0.0788,-0.1084 0.0119,-0.2916 -0.1496,-0.409 -0.1615,-0.117 -0.3562,-0.1243 -0.435,-0.0159 -0.0788,0.1084 -0.0118,0.2916 0.1496,0.4089 0.1615,0.1173 0.3562,0.1244 0.435,0.016"
           style="fill:#ffffff;fill-opacity:1;fill-rule:nonzero;stroke:none"
           id="path18291" /><path
           inkscape:connector-curvature="0"
           d="m 517.6353,79.3241 c 0.0788,-0.1084 0.0118,-0.2915 -0.1496,-0.4088 -0.1615,-0.1172 -0.3562,-0.1244 -0.435,-0.016 -0.0788,0.1085 -0.0118,0.2915 0.1496,0.4088 0.1615,0.1173 0.3562,0.1244 0.435,0.016"
           style="fill:#ffffff;fill-opacity:1;fill-rule:nonzero;stroke:none"
           id="path18293" /><path
           inkscape:connector-curvature="0"
           d="m 518.0115,78.7794 c 0.0789,-0.1085 0.0119,-0.2916 -0.1496,-0.4088 -0.1614,-0.1173 -0.3561,-0.1244 -0.4349,-0.016 -0.0789,0.1084 -0.0118,0.2915 0.1496,0.4088 0.1614,0.1172 0.3562,0.1244 0.4349,0.016"
           style="fill:#ffffff;fill-opacity:1;fill-rule:nonzero;stroke:none"
           id="path18295" /><path
           inkscape:connector-curvature="0"
           d="m 518.3878,78.2346 c 0.0788,-0.1086 0.0119,-0.2915 -0.1496,-0.4088 -0.1614,-0.1173 -0.3561,-0.1244 -0.435,-0.016 -0.0788,0.1085 -0.0118,0.2915 0.1497,0.4088 0.1614,0.1173 0.3561,0.1244 0.4349,0.016"
           style="fill:#ffffff;fill-opacity:1;fill-rule:nonzero;stroke:none"
           id="path18297" /><path
           inkscape:connector-curvature="0"
           d="m 518.764,77.6901 c 0.0788,-0.1084 0.0118,-0.2914 -0.1496,-0.4087 -0.1615,-0.1175 -0.3562,-0.1245 -0.4351,-0.016 -0.0788,0.1084 -0.0118,0.2914 0.1497,0.4087 0.1614,0.1174 0.3561,0.1245 0.435,0.016"
           style="fill:#ffffff;fill-opacity:1;fill-rule:nonzero;stroke:none"
           id="path18299" /><path
           inkscape:connector-curvature="0"
           d="m 519.1402,77.1454 c 0.0788,-0.1084 0.0118,-0.2915 -0.1496,-0.4088 -0.1614,-0.1173 -0.3562,-0.1244 -0.435,-0.016 -0.0788,0.1084 -0.0118,0.2915 0.1497,0.4088 0.1613,0.1173 0.3561,0.1244 0.4349,0.016"
           style="fill:#ffffff;fill-opacity:1;fill-rule:nonzero;stroke:none"
           id="path18301" /><path
           inkscape:connector-curvature="0"
           d="m 519.5163,76.601 c 0.0789,-0.1086 0.0118,-0.2917 -0.1496,-0.409 -0.1614,-0.1172 -0.3562,-0.1244 -0.435,-0.016 -0.0788,0.1085 -0.0118,0.2917 0.1497,0.4088 0.1614,0.1173 0.3562,0.1246 0.4349,0.0162"
           style="fill:#ffffff;fill-opacity:1;fill-rule:nonzero;stroke:none"
           id="path18303" /><path
           inkscape:connector-curvature="0"
           d="m 519.8926,76.0562 c 0.0788,-0.1087 0.0118,-0.2916 -0.1496,-0.4089 -0.1615,-0.1173 -0.3562,-0.1244 -0.435,-0.016 -0.0788,0.1086 -0.0118,0.2916 0.1496,0.4089 0.1615,0.1173 0.3562,0.1244 0.435,0.016"
           style="fill:#ffffff;fill-opacity:1;fill-rule:nonzero;stroke:none"
           id="path18305" /><path
           inkscape:connector-curvature="0"
           d="m 520.2689,75.5114 c 0.0788,-0.1086 0.0118,-0.2914 -0.1496,-0.4089 -0.1615,-0.1171 -0.3562,-0.1244 -0.435,-0.0158 -0.0788,0.1084 -0.0119,0.2915 0.1496,0.4087 0.1614,0.1171 0.3562,0.1244 0.435,0.016"
           style="fill:#ffffff;fill-opacity:1;fill-rule:nonzero;stroke:none"
           id="path18307" /><path
           inkscape:connector-curvature="0"
           d="m 520.645,74.9668 c 0.0788,-0.1085 0.0118,-0.2914 -0.1496,-0.4087 -0.1615,-0.1173 -0.3562,-0.1244 -0.435,-0.016 -0.0788,0.1084 -0.0118,0.2915 0.1496,0.4088 0.1614,0.1172 0.3562,0.1243 0.435,0.0159"
           style="fill:#ffffff;fill-opacity:1;fill-rule:nonzero;stroke:none"
           id="path18309" /><path
           inkscape:connector-curvature="0"
           d="m 521.0212,74.4221 c 0.0788,-0.1085 0.0119,-0.2915 -0.1496,-0.4087 -0.1615,-0.1173 -0.3562,-0.1245 -0.435,-0.0161 -0.0788,0.1084 -0.0117,0.2915 0.1497,0.4088 0.1614,0.1172 0.3561,0.1245 0.4349,0.016"
           style="fill:#ffffff;fill-opacity:1;fill-rule:nonzero;stroke:none"
           id="path18311" /><path
           inkscape:connector-curvature="0"
           d="m 521.3975,73.8772 c 0.0788,-0.1084 0.0118,-0.2913 -0.1496,-0.4086 -0.1614,-0.1173 -0.3562,-0.1244 -0.435,-0.016 -0.0788,0.1084 -0.0118,0.2913 0.1496,0.4087 0.1615,0.1173 0.3562,0.1245 0.435,0.0159"
           style="fill:#ffffff;fill-opacity:1;fill-rule:nonzero;stroke:none"
           id="path18313" /><path
           inkscape:connector-curvature="0"
           d="m 521.189,72.9081 c -0.0788,0.1085 -0.0118,0.2915 0.1496,0.4088 0.1615,0.1172 0.3562,0.1244 0.435,0.016 0.0788,-0.1087 0.0118,-0.2915 -0.1496,-0.4088 -0.1614,-0.1173 -0.3562,-0.1244 -0.435,-0.016"
           style="fill:#ffffff;fill-opacity:1;fill-rule:nonzero;stroke:none"
           id="path18315" /><path
           inkscape:connector-curvature="0"
           d="m 498.9767,77.2114 c 0.0807,0.1071 0.2753,0.0965 0.4346,-0.0235 0.1594,-0.1202 0.2232,-0.3044 0.1425,-0.4114 -0.0807,-0.1071 -0.2753,-0.0964 -0.4346,0.0237 -0.1594,0.12 -0.2232,0.3042 -0.1425,0.4112"
           style="fill:#ffffff;fill-opacity:1;fill-rule:nonzero;stroke:none"
           id="path18317" /><path
           inkscape:connector-curvature="0"
           d="m 499.1353,76.2887 c -0.0806,-0.1071 -0.2753,-0.0966 -0.4346,0.0237 -0.1593,0.12 -0.2232,0.3042 -0.1425,0.4112 0.0807,0.1072 0.2753,0.0966 0.4347,-0.0235 0.1593,-0.1203 0.2231,-0.3042 0.1424,-0.4114"
           style="fill:#ffffff;fill-opacity:1;fill-rule:nonzero;stroke:none"
           id="path18319" /><path
           inkscape:connector-curvature="0"
           d="m 498.7169,75.801 c -0.0807,-0.107 -0.2753,-0.0965 -0.4346,0.0235 -0.1594,0.1202 -0.2232,0.3044 -0.1425,0.4115 0.0807,0.1069 0.2753,0.0963 0.4346,-0.0237 0.1594,-0.1201 0.2232,-0.3042 0.1425,-0.4113"
           style="fill:#ffffff;fill-opacity:1;fill-rule:nonzero;stroke:none"
           id="path18321" /><path
           inkscape:connector-curvature="0"
           d="m 498.2984,75.3131 c -0.0807,-0.107 -0.2753,-0.0964 -0.4346,0.0236 -0.1594,0.1201 -0.2231,0.3042 -0.1425,0.4112 0.0807,0.1071 0.2753,0.0966 0.4347,-0.0234 0.1593,-0.1203 0.2231,-0.3042 0.1424,-0.4114"
           style="fill:#ffffff;fill-opacity:1;fill-rule:nonzero;stroke:none"
           id="path18323" /><path
           inkscape:connector-curvature="0"
           d="m 497.8799,74.8252 c -0.0807,-0.1071 -0.2753,-0.0963 -0.4346,0.0237 -0.1594,0.1201 -0.2232,0.3042 -0.1425,0.4112 0.0807,0.1071 0.2753,0.0966 0.4346,-0.0235 0.1594,-0.1201 0.2232,-0.3043 0.1425,-0.4114"
           style="fill:#ffffff;fill-opacity:1;fill-rule:nonzero;stroke:none"
           id="path18325" /><path
           inkscape:connector-curvature="0"
           d="m 497.4614,74.3375 c -0.0806,-0.107 -0.2752,-0.0964 -0.4346,0.0236 -0.1593,0.12 -0.2231,0.3042 -0.1424,0.4112 0.0807,0.1071 0.2752,0.0966 0.4346,-0.0235 0.1594,-0.12 0.2231,-0.3043 0.1424,-0.4113"
           style="fill:#ffffff;fill-opacity:1;fill-rule:nonzero;stroke:none"
           id="path18327" /><path
           inkscape:connector-curvature="0"
           d="m 497.043,73.8497 c -0.0807,-0.107 -0.2753,-0.0964 -0.4347,0.0236 -0.1593,0.12 -0.2231,0.3042 -0.1424,0.4112 0.0807,0.1071 0.2752,0.0966 0.4346,-0.0235 0.1594,-0.12 0.2232,-0.3042 0.1425,-0.4113"
           style="fill:#ffffff;fill-opacity:1;fill-rule:nonzero;stroke:none"
           id="path18329" /><path
           inkscape:connector-curvature="0"
           d="m 496.6245,73.3618 c -0.0807,-0.107 -0.2753,-0.0965 -0.4347,0.0236 -0.1593,0.12 -0.2231,0.3042 -0.1425,0.4112 0.0807,0.1072 0.2753,0.0966 0.4347,-0.0235 0.1593,-0.12 0.2231,-0.3042 0.1425,-0.4113"
           style="fill:#ffffff;fill-opacity:1;fill-rule:nonzero;stroke:none"
           id="path18331" /><path
           inkscape:connector-curvature="0"
           d="m 495.6289,73.309 c 0.0807,0.107 0.2752,0.0964 0.4346,-0.0237 0.1594,-0.1201 0.2231,-0.3042 0.1425,-0.4113 -0.0808,-0.107 -0.2753,-0.0965 -0.4347,0.0237 -0.1593,0.12 -0.2231,0.3042 -0.1424,0.4113"
           style="fill:#ffffff;fill-opacity:1;fill-rule:nonzero;stroke:none"
           id="path18333" /><path
           inkscape:connector-curvature="0"
           d="m 500.0904,76.6698 c 0.069,0.115 0.2637,0.1249 0.4347,0.0221 0.1711,-0.1027 0.2537,-0.2793 0.1847,-0.394 -0.0691,-0.1152 -0.2637,-0.1249 -0.4347,-0.0223 -0.1711,0.1029 -0.2537,0.2795 -0.1847,0.3942"
           style="fill:#ffffff;fill-opacity:1;fill-rule:nonzero;stroke:none"
           id="path18335" /><path
           inkscape:connector-curvature="0"
           d="m 500.3446,75.7689 c -0.0691,-0.115 -0.2637,-0.1249 -0.4347,-0.0221 -0.171,0.1027 -0.2537,0.2792 -0.1847,0.3942 0.069,0.1149 0.2637,0.1247 0.4347,0.0218 0.1711,-0.1026 0.2537,-0.2791 0.1847,-0.3939"
           style="fill:#ffffff;fill-opacity:1;fill-rule:nonzero;stroke:none"
           id="path18337" /><path
           inkscape:connector-curvature="0"
           d="m 499.9794,75.24 c -0.069,-0.1149 -0.2636,-0.1248 -0.4347,-0.022 -0.171,0.1027 -0.2537,0.2792 -0.1846,0.3942 0.069,0.1149 0.2636,0.1247 0.4347,0.0218 0.171,-0.1026 0.2537,-0.2791 0.1846,-0.394"
           style="fill:#ffffff;fill-opacity:1;fill-rule:nonzero;stroke:none"
           id="path18339" /><path
           inkscape:connector-curvature="0"
           d="m 499.6142,74.7111 c -0.069,-0.1149 -0.2636,-0.1247 -0.4347,-0.0219 -0.171,0.1027 -0.2537,0.2792 -0.1846,0.3941 0.069,0.1149 0.2636,0.1247 0.4347,0.0219 0.171,-0.1026 0.2537,-0.2792 0.1846,-0.3941"
           style="fill:#ffffff;fill-opacity:1;fill-rule:nonzero;stroke:none"
           id="path18341" /><path
           inkscape:connector-curvature="0"
           d="m 499.249,74.1821 c -0.069,-0.1148 -0.2637,-0.1246 -0.4347,-0.0218 -0.1711,0.1026 -0.2538,0.2792 -0.1847,0.394 0.069,0.115 0.2637,0.1248 0.4347,0.0221 0.1711,-0.1028 0.2537,-0.2793 0.1847,-0.3943"
           style="fill:#ffffff;fill-opacity:1;fill-rule:nonzero;stroke:none"
           id="path18343" /><path
           inkscape:connector-curvature="0"
           d="m 498.8839,73.6533 c -0.0691,-0.115 -0.2638,-0.1249 -0.4347,-0.022 -0.1711,0.1028 -0.2538,0.2793 -0.1847,0.3941 0.069,0.115 0.2636,0.1249 0.4347,0.0221 0.171,-0.1028 0.2537,-0.2793 0.1847,-0.3942"
           style="fill:#ffffff;fill-opacity:1;fill-rule:nonzero;stroke:none"
           id="path18345" /><path
           inkscape:connector-curvature="0"
           d="m 498.5187,73.1245 c -0.0691,-0.115 -0.2637,-0.1249 -0.4347,-0.0221 -0.1711,0.1029 -0.2538,0.2792 -0.1848,0.3942 0.0691,0.1149 0.2637,0.1247 0.4348,0.0221 0.171,-0.1029 0.2537,-0.2794 0.1847,-0.3942"
           style="fill:#ffffff;fill-opacity:1;fill-rule:nonzero;stroke:none"
           id="path18347" /><path
           inkscape:connector-curvature="0"
           d="m 498.1534,72.5955 c -0.069,-0.1149 -0.2637,-0.1247 -0.4347,-0.022 -0.171,0.1028 -0.2537,0.2792 -0.1847,0.3942 0.0691,0.1148 0.2637,0.1246 0.4347,0.0219 0.1711,-0.1028 0.2537,-0.2792 0.1847,-0.3941"
           style="fill:#ffffff;fill-opacity:1;fill-rule:nonzero;stroke:none"
           id="path18349" /><path
           inkscape:connector-curvature="0"
           d="m 497.1688,72.4387 c 0.0691,0.115 0.2637,0.1248 0.4347,0.022 0.1711,-0.1027 0.2538,-0.2792 0.1847,-0.3942 -0.069,-0.1148 -0.2636,-0.1246 -0.4347,-0.0218 -0.171,0.1026 -0.2537,0.2792 -0.1847,0.394"
           style="fill:#ffffff;fill-opacity:1;fill-rule:nonzero;stroke:none"
           id="path18351" /><path
           inkscape:connector-curvature="0"
           d="m 497.9121,78.2921 c 0.0844,0.1043 0.2785,0.0868 0.4335,-0.0387 0.1551,-0.1255 0.2124,-0.3117 0.1281,-0.416 -0.0844,-0.1041 -0.2785,-0.0868 -0.4336,0.0387 -0.155,0.1256 -0.2124,0.3119 -0.128,0.416"
           style="fill:#ffffff;fill-opacity:1;fill-rule:nonzero;stroke:none"
           id="path18353" /><path
           inkscape:connector-curvature="0"
           d="m 498.0384,77.3645 c -0.0844,-0.1041 -0.2785,-0.0869 -0.4335,0.0387 -0.1551,0.1256 -0.2124,0.3119 -0.128,0.416 0.0843,0.1043 0.2784,0.0868 0.4335,-0.0388 0.1551,-0.1255 0.2124,-0.3116 0.128,-0.4159"
           style="fill:#ffffff;fill-opacity:1;fill-rule:nonzero;stroke:none"
           id="path18355" /><path
           inkscape:connector-curvature="0"
           d="m 497.6032,76.8916 c -0.0844,-0.1041 -0.2785,-0.0868 -0.4336,0.0388 -0.155,0.1255 -0.2123,0.3118 -0.1279,0.4159 0.0843,0.1043 0.2784,0.0869 0.4335,-0.0387 0.155,-0.1256 0.2124,-0.3119 0.128,-0.416"
           style="fill:#ffffff;fill-opacity:1;fill-rule:nonzero;stroke:none"
           id="path18357" /><path
           inkscape:connector-curvature="0"
           d="m 497.1679,76.4188 c -0.0843,-0.1041 -0.2784,-0.0869 -0.4335,0.0387 -0.1551,0.1255 -0.2124,0.3119 -0.128,0.4159 0.0844,0.1043 0.2785,0.0868 0.4335,-0.0387 0.1551,-0.1255 0.2124,-0.3119 0.128,-0.4159"
           style="fill:#ffffff;fill-opacity:1;fill-rule:nonzero;stroke:none"
           id="path18359" /><path
           inkscape:connector-curvature="0"
           d="m 496.7326,75.9458 c -0.0843,-0.1042 -0.2784,-0.0869 -0.4335,0.0387 -0.1551,0.1256 -0.2124,0.3119 -0.128,0.416 0.0844,0.1041 0.2785,0.0868 0.4335,-0.0387 0.1551,-0.1256 0.2124,-0.3119 0.128,-0.416"
           style="fill:#ffffff;fill-opacity:1;fill-rule:nonzero;stroke:none"
           id="path18361" /><path
           inkscape:connector-curvature="0"
           d="m 496.2975,75.4729 c -0.0844,-0.1042 -0.2785,-0.0868 -0.4336,0.0387 -0.1551,0.1256 -0.2124,0.3119 -0.128,0.416 0.0844,0.1041 0.2784,0.0868 0.4335,-0.0387 0.1551,-0.1255 0.2124,-0.3119 0.1281,-0.416"
           style="fill:#ffffff;fill-opacity:1;fill-rule:nonzero;stroke:none"
           id="path18363" /><path
           inkscape:connector-curvature="0"
           d="m 495.8622,75 c -0.0844,-0.1042 -0.2785,-0.0868 -0.4336,0.0387 -0.155,0.1256 -0.2124,0.3118 -0.128,0.416 0.0844,0.1043 0.2785,0.0869 0.4336,-0.0387 0.1551,-0.1255 0.2123,-0.3119 0.128,-0.416"
           style="fill:#ffffff;fill-opacity:1;fill-rule:nonzero;stroke:none"
           id="path18365" /><path
           inkscape:connector-curvature="0"
           d="m 495.4269,74.5271 c -0.0844,-0.1042 -0.2785,-0.0868 -0.4336,0.0387 -0.155,0.1256 -0.2123,0.3118 -0.128,0.416 0.0844,0.1041 0.2785,0.0868 0.4336,-0.0387 0.155,-0.1256 0.2124,-0.3119 0.128,-0.416"
           style="fill:#ffffff;fill-opacity:1;fill-rule:nonzero;stroke:none"
           id="path18367" /><path
           inkscape:connector-curvature="0"
           d="m 494.4301,74.5089 c 0.0843,0.1041 0.2785,0.0868 0.4335,-0.0387 0.1551,-0.1256 0.2124,-0.3119 0.128,-0.416 -0.0843,-0.1042 -0.2784,-0.087 -0.4335,0.0387 -0.1551,0.1256 -0.2124,0.3118 -0.128,0.416"
           style="fill:#ffffff;fill-opacity:1;fill-rule:nonzero;stroke:none"
           id="path18369" /><path
           inkscape:connector-curvature="0"
           d="m 509.679,87.2781 c -0.0562,0.1146 0.0436,0.2719 0.2228,0.3515 0.1792,0.0795 0.37,0.0511 0.4261,-0.0636 0.0562,-0.1146 -0.0436,-0.2719 -0.2228,-0.3515 -0.1792,-0.0796 -0.37,-0.0512 -0.4261,0.0636"
           style="fill:#ffffff;fill-opacity:1;fill-rule:nonzero;stroke:none"
           id="path18371" /><path
           inkscape:connector-curvature="0"
           d="m 510.6112,86.9498 c 0.0562,-0.1146 -0.0437,-0.2719 -0.2229,-0.3513 -0.1792,-0.0796 -0.37,-0.0513 -0.4261,0.0634 -0.0562,0.1146 0.0436,0.2719 0.2228,0.3515 0.1793,0.0796 0.3701,0.0512 0.4262,-0.0636"
           style="fill:#ffffff;fill-opacity:1;fill-rule:nonzero;stroke:none"
           id="path18373" /><path
           inkscape:connector-curvature="0"
           d="m 510.8943,86.3341 c 0.0562,-0.1147 -0.0436,-0.2721 -0.2228,-0.3516 -0.1793,-0.0797 -0.37,-0.0512 -0.4262,0.0635 -0.0561,0.1145 0.0436,0.2719 0.2229,0.3515 0.1792,0.0796 0.37,0.0511 0.4261,-0.0634"
           style="fill:#ffffff;fill-opacity:1;fill-rule:nonzero;stroke:none"
           id="path18375" /><path
           inkscape:connector-curvature="0"
           d="m 511.1775,85.7183 c 0.0561,-0.1148 -0.0437,-0.2721 -0.2229,-0.3517 -0.1792,-0.0795 -0.37,-0.051 -0.4262,0.0636 -0.0561,0.1146 0.0437,0.2719 0.2229,0.3515 0.1792,0.0796 0.3699,0.0512 0.4262,-0.0634"
           style="fill:#ffffff;fill-opacity:1;fill-rule:nonzero;stroke:none"
           id="path18377" /><path
           inkscape:connector-curvature="0"
           d="m 511.4607,85.1021 c 0.0561,-0.1147 -0.0436,-0.2721 -0.2228,-0.3515 -0.1793,-0.0797 -0.37,-0.0513 -0.4262,0.0634 -0.0562,0.1146 0.0436,0.2719 0.2228,0.3515 0.1792,0.0796 0.37,0.0512 0.4262,-0.0634"
           style="fill:#ffffff;fill-opacity:1;fill-rule:nonzero;stroke:none"
           id="path18379" /><path
           inkscape:connector-curvature="0"
           d="m 511.7438,84.4862 c 0.0561,-0.1146 -0.0436,-0.2721 -0.2228,-0.3516 -0.1792,-0.0795 -0.37,-0.0511 -0.4262,0.0635 -0.0561,0.1145 0.0437,0.2721 0.2229,0.3516 0.1792,0.0795 0.37,0.051 0.4261,-0.0635"
           style="fill:#ffffff;fill-opacity:1;fill-rule:nonzero;stroke:none"
           id="path18381" /><path
           inkscape:connector-curvature="0"
           d="m 512.027,83.8701 c 0.0562,-0.1147 -0.0436,-0.2721 -0.2228,-0.3517 -0.1792,-0.0793 -0.37,-0.0511 -0.4261,0.0636 -0.0562,0.1147 0.0436,0.272 0.2228,0.3516 0.1792,0.0795 0.37,0.0511 0.4261,-0.0635"
           style="fill:#ffffff;fill-opacity:1;fill-rule:nonzero;stroke:none"
           id="path18383" /><path
           inkscape:connector-curvature="0"
           d="m 512.3103,83.2539 c 0.0562,-0.1145 -0.0436,-0.272 -0.2228,-0.3514 -0.1793,-0.0796 -0.3701,-0.0512 -0.4262,0.0633 -0.0562,0.1148 0.0436,0.2721 0.2229,0.3517 0.1792,0.0796 0.37,0.0512 0.4261,-0.0636"
           style="fill:#ffffff;fill-opacity:1;fill-rule:nonzero;stroke:none"
           id="path18385" /><path
           inkscape:connector-curvature="0"
           d="m 512.5934,82.6382 c 0.0561,-0.1148 -0.0436,-0.2721 -0.2228,-0.3517 -0.1793,-0.0795 -0.3701,-0.0511 -0.4262,0.0636 -0.0561,0.1145 0.0436,0.272 0.2229,0.3514 0.1792,0.0796 0.37,0.0512 0.4261,-0.0633"
           style="fill:#ffffff;fill-opacity:1;fill-rule:nonzero;stroke:none"
           id="path18387" /><path
           inkscape:connector-curvature="0"
           d="m 512.8766,82.022 c 0.0562,-0.1147 -0.0436,-0.2721 -0.2227,-0.3516 -0.1793,-0.0795 -0.3701,-0.0511 -0.4262,0.0635 -0.0561,0.1146 0.0436,0.272 0.2228,0.3517 0.1792,0.0793 0.37,0.0509 0.4261,-0.0636"
           style="fill:#ffffff;fill-opacity:1;fill-rule:nonzero;stroke:none"
           id="path18389" /><path
           inkscape:connector-curvature="0"
           d="m 513.1599,81.4059 c 0.0562,-0.1148 -0.0436,-0.2721 -0.2228,-0.3516 -0.1792,-0.0794 -0.37,-0.0511 -0.4262,0.0635 -0.0561,0.1146 0.0436,0.272 0.2229,0.3516 0.1791,0.0796 0.3699,0.0511 0.4261,-0.0635"
           style="fill:#ffffff;fill-opacity:1;fill-rule:nonzero;stroke:none"
           id="path18391" /><path
           inkscape:connector-curvature="0"
           d="m 513.443,80.79 c 0.0562,-0.1146 -0.0436,-0.2721 -0.2228,-0.3515 -0.1792,-0.0796 -0.37,-0.0512 -0.4262,0.0635 -0.0561,0.1145 0.0436,0.272 0.2228,0.3515 0.1792,0.0795 0.37,0.051 0.4262,-0.0635"
           style="fill:#ffffff;fill-opacity:1;fill-rule:nonzero;stroke:none"
           id="path18393" /><path
           inkscape:connector-curvature="0"
           d="m 513.7263,80.174 c 0.0561,-0.1148 -0.0437,-0.2721 -0.2228,-0.3517 -0.1793,-0.0794 -0.3701,-0.0512 -0.4262,0.0636 -0.0562,0.1146 0.0436,0.2719 0.2228,0.3515 0.1792,0.0795 0.37,0.0511 0.4262,-0.0634"
           style="fill:#ffffff;fill-opacity:1;fill-rule:nonzero;stroke:none"
           id="path18395" /><path
           inkscape:connector-curvature="0"
           d="m 514.0095,79.5577 c 0.0561,-0.1147 -0.0436,-0.2721 -0.2228,-0.3514 -0.1792,-0.0796 -0.37,-0.0511 -0.4262,0.0634 -0.0561,0.1146 0.0436,0.2719 0.2229,0.3516 0.1792,0.0795 0.37,0.0511 0.4261,-0.0636"
           style="fill:#ffffff;fill-opacity:1;fill-rule:nonzero;stroke:none"
           id="path18397" /><path
           inkscape:connector-curvature="0"
           d="m 514.2926,78.9418 c 0.0562,-0.1145 -0.0436,-0.2719 -0.2228,-0.3515 -0.1792,-0.0796 -0.37,-0.0511 -0.4262,0.0635 -0.0561,0.1146 0.0437,0.2719 0.2229,0.3516 0.1792,0.0796 0.37,0.0511 0.4261,-0.0636"
           style="fill:#ffffff;fill-opacity:1;fill-rule:nonzero;stroke:none"
           id="path18399" /><path
           inkscape:connector-curvature="0"
           d="m 514.5759,78.3258 c 0.0561,-0.1146 -0.0437,-0.2721 -0.2229,-0.3516 -0.1792,-0.0795 -0.37,-0.0511 -0.4261,0.0635 -0.0562,0.1146 0.0436,0.2721 0.2228,0.3517 0.1792,0.0794 0.37,0.0509 0.4262,-0.0636"
           style="fill:#ffffff;fill-opacity:1;fill-rule:nonzero;stroke:none"
           id="path18401" /><path
           inkscape:connector-curvature="0"
           d="m 514.8591,77.7097 c 0.0561,-0.1147 -0.0436,-0.2721 -0.2228,-0.3517 -0.1793,-0.0793 -0.37,-0.051 -0.4262,0.0636 -0.0562,0.1147 0.0437,0.272 0.2229,0.3515 0.1791,0.0797 0.37,0.0512 0.4261,-0.0634"
           style="fill:#ffffff;fill-opacity:1;fill-rule:nonzero;stroke:none"
           id="path18403" /><path
           inkscape:connector-curvature="0"
           d="m 515.1423,77.0939 c 0.0561,-0.1147 -0.0437,-0.2721 -0.2229,-0.3517 -0.1792,-0.0795 -0.37,-0.0512 -0.4262,0.0636 -0.0561,0.1145 0.0437,0.272 0.2229,0.3514 0.1792,0.0796 0.37,0.0512 0.4262,-0.0633"
           style="fill:#ffffff;fill-opacity:1;fill-rule:nonzero;stroke:none"
           id="path18405" /><path
           inkscape:connector-curvature="0"
           d="m 515.4255,76.4777 c 0.0561,-0.1147 -0.0437,-0.272 -0.2229,-0.3516 -0.1792,-0.0796 -0.37,-0.0511 -0.4261,0.0635 -0.0562,0.1145 0.0436,0.2719 0.2228,0.3515 0.1792,0.0796 0.37,0.0511 0.4262,-0.0634"
           style="fill:#ffffff;fill-opacity:1;fill-rule:nonzero;stroke:none"
           id="path18407" /><path
           inkscape:connector-curvature="0"
           d="m 515.7087,75.8616 c 0.0561,-0.1147 -0.0437,-0.2721 -0.2228,-0.3516 -0.1793,-0.0795 -0.3701,-0.051 -0.4262,0.0635 -0.0561,0.1146 0.0436,0.272 0.2229,0.3515 0.1792,0.0796 0.37,0.0512 0.4261,-0.0634"
           style="fill:#ffffff;fill-opacity:1;fill-rule:nonzero;stroke:none"
           id="path18409" /><path
           inkscape:connector-curvature="0"
           d="m 515.9918,75.2456 c 0.0562,-0.1146 -0.0436,-0.272 -0.2228,-0.3514 -0.1792,-0.0796 -0.37,-0.0513 -0.4262,0.0634 -0.0561,0.1145 0.0437,0.2719 0.2229,0.3516 0.1792,0.0795 0.37,0.051 0.4261,-0.0636"
           style="fill:#ffffff;fill-opacity:1;fill-rule:nonzero;stroke:none"
           id="path18411" /><path
           inkscape:connector-curvature="0"
           d="m 516.2751,74.6296 c 0.0561,-0.1147 -0.0437,-0.2721 -0.2229,-0.3516 -0.1792,-0.0795 -0.3699,-0.0511 -0.4261,0.0636 -0.0562,0.1145 0.0436,0.2719 0.2228,0.3514 0.1792,0.0796 0.37,0.0511 0.4262,-0.0634"
           style="fill:#ffffff;fill-opacity:1;fill-rule:nonzero;stroke:none"
           id="path18413" /><path
           inkscape:connector-curvature="0"
           d="m 516.5583,74.0134 c 0.0561,-0.1146 -0.0437,-0.2719 -0.2228,-0.3515 -0.1792,-0.0795 -0.37,-0.0511 -0.4262,0.0634 -0.0561,0.1147 0.0436,0.272 0.2228,0.3516 0.1792,0.0797 0.37,0.051 0.4262,-0.0635"
           style="fill:#ffffff;fill-opacity:1;fill-rule:nonzero;stroke:none"
           id="path18415" /><path
           inkscape:connector-curvature="0"
           d="m 516.8414,73.3976 c 0.0562,-0.1146 -0.0436,-0.272 -0.2228,-0.3516 -0.1792,-0.0794 -0.37,-0.051 -0.4262,0.0636 -0.056,0.1145 0.0437,0.2719 0.2229,0.3515 0.1792,0.0795 0.37,0.0511 0.4261,-0.0635"
           style="fill:#ffffff;fill-opacity:1;fill-rule:nonzero;stroke:none"
           id="path18417" /><path
           inkscape:connector-curvature="0"
           d="m 517.1247,72.7815 c 0.0561,-0.1148 -0.0436,-0.2721 -0.2229,-0.3516 -0.1791,-0.0796 -0.3699,-0.0512 -0.4262,0.0635 -0.056,0.1145 0.0437,0.2719 0.2229,0.3516 0.1792,0.0794 0.37,0.051 0.4262,-0.0635"
           style="fill:#ffffff;fill-opacity:1;fill-rule:nonzero;stroke:none"
           id="path18419" /><path
           inkscape:connector-curvature="0"
           d="m 517.4079,72.1654 c 0.0562,-0.1146 -0.0436,-0.2721 -0.2228,-0.3517 -0.1792,-0.0793 -0.37,-0.0509 -0.4262,0.0636 -0.0561,0.1146 0.0437,0.2721 0.2229,0.3516 0.1791,0.0794 0.3699,0.051 0.4261,-0.0635"
           style="fill:#ffffff;fill-opacity:1;fill-rule:nonzero;stroke:none"
           id="path18421" /><path
           inkscape:connector-curvature="0"
           d="m 517.0421,71.2615 c -0.0561,0.1145 0.0436,0.2718 0.2228,0.3514 0.1792,0.0796 0.37,0.0512 0.4261,-0.0635 0.0562,-0.1146 -0.0436,-0.2719 -0.2228,-0.3514 -0.1792,-0.0796 -0.37,-0.0511 -0.4261,0.0635"
           style="fill:#ffffff;fill-opacity:1;fill-rule:nonzero;stroke:none"
           id="path18423" /><path
           inkscape:connector-curvature="0"
           d="m 509.9042,69.9706 c 2.0481,-1.1514 5.883,-6.9929 5.883,-6.9929 2.336,-0.2879 3.4704,0.711 3.4704,0.711 0,0 -3.6087,4.5878 -8.2729,6.5219 -1.1578,0.2417 -1.0805,-0.24 -1.0805,-0.24"
           style="fill:#ffffff;fill-opacity:1;fill-rule:nonzero;stroke:none"
           id="path18425" /><path
           inkscape:connector-curvature="0"
           d="m 509.9042,69.9706 c 2.0481,-1.1514 5.883,-6.9929 5.883,-6.9929 2.336,-0.2879 3.4704,0.711 3.4704,0.711 0,0 -3.6087,4.5878 -8.2729,6.5219 -1.1578,0.2417 -1.0805,-0.24 -1.0805,-0.24 z"
           style="fill:none;stroke:#ef2c30;stroke-width:0.39680001;stroke-linecap:butt;stroke-linejoin:miter;stroke-miterlimit:3.86369991;stroke-opacity:1;stroke-dasharray:none"
           id="path18427" /><path
           inkscape:connector-curvature="0"
           d="m 471.743,92.2289 c 0.9754,-0.5171 1.5866,-0.7985 1.9537,-1.0021 0.1709,0.2368 0.397,0.5487 0.5655,0.8528 0.028,0.0504 0.0527,0.0999 0.0747,0.1484 l 0.6786,9e-4 c -0.0718,-0.1828 -0.1622,-0.3737 -0.2733,-0.5742 l -1.4554,-2.6258 -0.363,0.3734 c 0.4227,0.7862 0.1591,0.9323 -2.3857,2.3428 -0.3239,0.1795 -0.6148,0.3407 -0.8768,0.4844 l 2.0817,-6e-4 z m 58.1919,0 c 0.0456,-0.0871 0.0987,-0.1862 0.1626,-0.3015 0.5169,-0.9327 0.9917,-1.3588 2.2387,-0.6676 l 0.4306,-0.4901 -2.1492,-1.1913 -1.469,2.6505"
           style="fill:#abaaaa;fill-opacity:1;fill-rule:evenodd;stroke:none"
           id="path18429" /><path
           inkscape:connector-curvature="0"
           d="m 468.5184,95.4289 c -0.1064,-0.1063 -0.2075,-0.2418 -0.3006,-0.4098 -0.2079,-0.3751 -0.2178,-0.6083 0.1,-0.8241 0.2163,-0.1597 0.961,-0.5856 1.1434,-0.6867 l 0.7751,-0.4429 c 0.0787,0.142 0.1674,0.2783 0.2461,0.4203 0.6038,1.0894 0.1558,1.6649 -0.2149,1.942 l 1.1036,0.0012 c 0.074,-0.2516 0.0897,-0.5316 0.0199,-0.8301 0.4104,0.5241 0.9054,0.7606 1.3757,0.8287 l 0.6007,0.0014 c 0.2802,-0.0374 0.5291,-0.1248 0.7161,-0.2284 0.5794,-0.3212 1.6345,-1.2005 0.932,-2.973 l -0.6786,0.0014 c 0.5036,1.1138 -0.5179,1.753 -0.7511,1.8822 -1.5006,0.8317 -2.1636,-0.3645 -2.5345,-1.0336 -0.0674,-0.1217 -0.1247,-0.2489 -0.182,-0.3761 0.3195,-0.1771 0.6099,-0.3339 0.8737,-0.4735 l -2.0817,10e-4 c -2.1501,1.1804 -2.3578,1.1851 -2.8609,0.4481 l -0.3719,0.4049 c 0.1236,0.2231 0.3439,0.525 0.6698,1.113 0.2766,0.4989 0.4796,0.9339 0.6342,1.2337 l 0.7859,3e-4 z m 65.3197,0 c -0.2332,-0.1261 -0.5006,-0.2743 -0.8093,-0.4455 -0.8617,-0.4775 -3.0392,-1.7376 -3.4549,-1.9679 0.13,-0.2904 0.1981,-0.4694 0.361,-0.7852 l -0.7863,-0.0014 -1.2339,2.2262 0.5204,0.0893 c 0.3539,-0.6385 0.7391,-0.4251 1.6739,0.0401 0.2232,0.1237 0.4721,0.2483 0.7763,0.4169 0.2734,0.1516 0.5295,0.2936 0.7688,0.4264 l 2.184,0.0011 z m 2.5884,0 0.0197,-0.0356 -0.4955,-0.0625 c -0.0221,0.0337 -0.0434,0.0663 -0.0639,0.0976"
           style="fill:#abaaaa;fill-opacity:1;fill-rule:evenodd;stroke:none"
           id="path18431" /><path
           inkscape:connector-curvature="0"
           d="m 481.7028,100.2289 -2.3269,-2.0227 -0.2046,0.4826 c 0.5142,0.5076 0.431,0.7204 -0.25,1.5406 l 2.7815,-5e-4 z m -13.9703,-4.8 c 0.0276,0.0533 0.0536,0.1025 0.0783,0.147 0.916,1.6526 2.3003,1.1372 2.6855,0.9236 0.3792,-0.2102 0.7334,-0.5891 0.8748,-1.0702 l -1.1036,-4e-4 c -0.0812,0.0595 -0.1587,0.1059 -0.2206,0.1402 -0.4643,0.2573 -1.0506,0.3429 -1.5285,-0.1392 l -0.7859,-0.001 z m 5.0342,0 c 0.2082,0.0288 0.4116,0.0259 0.6007,4e-4 l -0.6007,-4e-4 z m 58.8874,0 c 0.932,0.5163 1.6097,0.8963 2.0688,1.1718 0.936,0.5587 1.0712,0.6733 0.66,1.5586 l 0.4842,0.083 1.5594,-2.8134 -0.5397,0 c -0.4734,0.7184 -0.5988,0.7849 -2.0487,1e-4"
           style="fill:#abaaaa;fill-opacity:1;fill-rule:evenodd;stroke:none"
           id="path18433" /><path
           inkscape:connector-curvature="0"
           d="m 476.4001,105.0289 c 0.002,-0.1508 0.0824,-0.3083 0.2299,-0.5014 0.1584,-0.2 0.3778,-0.47 0.6517,-0.7851 l 0.6071,-0.7161 c 0.1639,0.1117 0.3268,0.2071 0.4755,0.3364 0.2772,0.241 0.9638,0.8591 0.6547,1.6667 l 0.9635,-5e-4 c -0.003,-0.5995 -0.2998,-1.1191 -0.6042,-1.3838 0.4312,0.1752 0.6442,0.2836 1.7463,-0.1714 l 1.0781,-0.4451 c 1.1739,-0.4847 1.3135,-0.4863 1.9638,0.002 l 0.1871,-0.4978 -1.2597,-1.095 -2.1878,0.9089 c -1.7641,0.7396 -1.87,0.7551 -2.5587,0.1871 0.0532,-0.0613 0.1445,-0.1662 0.2206,-0.2538 0.441,-0.5074 0.8084,-0.8946 1.0833,-1.1931 0.6662,-0.6958 1.0555,-1.0023 2.0756,-0.1617 l 0.1859,-0.5141 -0.21,-0.1825 -2.7815,0 c -0.009,0.0109 -0.0175,0.0214 -0.0263,0.032 -0.3117,0.3587 -0.7189,0.8801 -1.3121,1.5625 -0.7605,0.8749 -1.3016,1.4795 -1.6537,1.8492 -0.4738,0.5098 -0.763,0.719 -1.4006,0.1803 l -0.211,0.5077 c 0.1918,0.1531 0.4837,0.3695 0.8376,0.6685 l 1.2449,-2e-4 z m 44.3223,0 c -0.2811,-0.9229 -0.1921,-2.0426 1.1207,-3.0684 0.7035,-0.5496 1.4204,-0.8745 2.1272,-0.7793 0.3905,0.0478 0.7811,0.0958 1.6944,1.2649 0.789,1.0099 1.0598,1.863 1.0069,2.5823 l 1.1795,5e-4 c 0.0943,-0.9292 -0.2533,-1.9158 -1.0312,-2.9116 -1.5842,-2.0278 -4.2193,-2.0869 -5.8908,-0.781 -0.7666,0.5989 -1.8495,1.8828 -1.427,3.6936"
           style="fill:#abaaaa;fill-opacity:1;fill-rule:evenodd;stroke:none"
           id="path18435" /><path
           inkscape:connector-curvature="0"
           d="m 489.4096,109.8289 c 0.1015,-0.2561 0.2104,-0.5274 0.3258,-0.8133 0.4299,-1.0639 0.7163,-1.7109 0.9158,-2.0804 0.2728,-0.4898 0.5525,-0.4392 1.1847,-0.2714 l 0.0104,-0.5207 -2.6869,-1.0855 -0.0211,0.5164 c 0.4363,0.1888 0.6576,0.2907 0.4551,0.9465 -0.1567,0.5117 -0.513,1.4554 -1.1687,3.0783 -0.0318,0.0787 -0.0628,0.1551 -0.0931,0.2294 l 1.078,7e-4 z m 8.8332,0 c 0.0895,-1.1416 0.4048,-1.4651 1.823,-1.3908 0.2893,0.0151 0.7522,0.0394 1.0149,0.3433 0.1756,0.1949 0.3316,0.5396 0.3061,1.0259 -4e-4,0.007 -8e-4,0.014 -10e-4,0.0211 l 1.1138,5e-4 c -0.0306,-0.8012 -0.3884,-1.2337 -0.6966,-1.532 -0.596,-0.5882 -1.4166,-0.6545 -2.0186,-0.686 -0.5325,-0.0279 -1.9725,-0.0106 -2.1579,-0.0203 l -0.1173,2.2383 0.7339,0 z m 14.5332,0 c -0.2581,-0.8362 -0.4271,-1.4629 -0.549,-1.8977 -0.3215,-1.1021 0.0245,-1.2753 0.9326,-1.6314 l -0.2905,-0.3686 -3.5387,1.1499 0.2573,0.3794 c 0.9735,-0.2676 1.1443,-0.0792 1.5143,0.9096 0.1401,0.3582 0.3196,0.8372 0.5351,1.4583 l 1.1389,5e-4 z m -37.6208,-4.8 c 0.0477,0.0405 0.0965,0.0822 0.1463,0.1256 0.4637,0.4031 0.9057,0.8487 1.3693,1.2517 1.0586,0.9202 2.1505,0.6713 2.7969,-0.0724 0.3774,-0.4341 0.517,-0.889 0.5148,-1.3054 l -0.9635,5e-4 c -0.0615,0.1613 -0.1626,0.3295 -0.314,0.5038 -0.6235,0.7173 -1.3032,0.6333 -1.933,0.0859 -0.2574,-0.2238 -0.3749,-0.4015 -0.3719,-0.5896 l -1.2449,-1e-4 z m 44.3469,0 c 0.1465,0.6287 0.4739,1.3197 1.058,2.0674 0.5851,0.749 1.5279,1.2777 2.5619,1.3963 1.0648,0.1391 2.0667,-0.0848 3.1353,-0.9197 0.9728,-0.76 1.5002,-1.6238 1.5938,-2.5442 l -1.1795,2e-4 c -0.0638,0.8675 -0.5988,1.5408 -1.2632,2.0599 -0.6668,0.5209 -1.3096,0.8467 -1.8954,0.7747 -0.6376,-0.1196 -1.248,-0.3926 -1.8475,-1.1599 -0.2624,-0.3359 -0.7197,-0.9434 -0.9431,-1.676"
           style="fill:#abaaaa;fill-opacity:1;fill-rule:evenodd;stroke:none"
           id="path18437" /><path
           inkscape:connector-curvature="0"
           d="m 488.3316,109.8289 c -0.2752,0.6754 -0.486,1.1694 -0.6406,1.5238 -0.3862,0.8941 -0.5409,0.844 -1.2204,0.607 l -0.008,0.5469 2.4933,1.0073 0.0212,-0.5166 c -0.5374,-0.2171 -0.5777,-0.396 -0.2646,-1.2946 0.1564,-0.4799 0.3943,-1.1093 0.6973,-1.8737 l -1.078,-10e-5 z m 9.1773,0 -0.006,0.1114 0.7092,0.4203 c 0.006,-0.1043 0.011,-0.2085 0.0165,-0.3127 0.004,-0.076 0.009,-0.1488 0.0141,-0.2186 l -0.7339,-4e-4 z m 3.8766,0 c -0.1272,1.8739 -4.0131,1.4943 -4.131,3.743 -0.0418,0.7987 0.3296,2.1299 2.5056,2.2439 0.5905,0.0309 1.6482,0.005 2.0191,0.013 l 0.0989,-1.887 -0.6654,-0.3713 c -0.005,0.0926 -0.0103,0.1968 -0.0152,0.2893 -0.0521,0.9955 -0.4035,1.2789 -1.4337,1.2249 -0.2664,-0.014 -1.4239,-0.0747 -1.365,-1.1975 0.0886,-1.6899 3.9731,-1.3935 4.0981,-3.778 0.005,-0.0981 0.006,-0.1913 0.002,-0.2801 l -1.1138,-2e-4 z m 10.2516,0 c 0.1163,0.3346 0.2432,0.7111 0.3801,1.1323 0.2615,0.8048 0.673,2.1091 0.8048,2.6271 -1.2457,0.4048 -1.8962,0.6161 -2.396,-0.6598 l -0.7036,-0.0272 0.6985,2.1497 6.2615,-2.0346 -0.6053,-1.8632 -0.7035,-0.0273 c 0.3438,1.0582 0.2851,1.5527 -1.0709,1.9933 -0.1322,0.043 -0.257,0.0715 -0.3929,0.1033 -0.269,-0.7902 -0.6851,-1.9957 -0.9143,-2.7012 -0.0797,-0.2451 -0.1526,-0.476 -0.2195,-0.6927"
           style="fill:#abaaaa;fill-opacity:1;fill-rule:evenodd;stroke:none"
           id="path18439" /><path
           inkscape:connector-curvature="0"
           d="m 492.7755,39.5174 c 0.3749,-0.5779 1.0215,-0.9565 1.9341,-1.1505 0.8672,-0.1844 1.2816,-0.1421 1.871,-0.0779 l -0.3812,-0.8907 c -0.6759,-0.0695 -1.0105,-0.1879 -2.0207,0.0269 -1.2937,0.2751 -2.2082,1.0309 -2.6345,2.0918 l 1.2313,4e-4 z m 9.1423,0 c 0.2389,-1.0428 0.8825,-2.1453 2.6133,-2.1453 0.8035,0 1.4919,0.1853 1.9404,0.6954 0.2129,0.2365 0.4256,0.4728 0.4847,1.4486 l 0.9107,0.0013 c -0.4181,-1.9731 -2.0013,-3.2 -3.6382,-3.2 -1.0487,0 -2.9641,0.4951 -3.3744,3.1992 l 1.0635,8e-4 z m 12.052,0 c 0.3465,-0.4089 0.8742,-0.6902 1.6821,-0.3962 0.2908,0.095 0.527,0.2411 0.7095,0.397 l 0.889,-8e-4 c -0.2683,-0.4517 -0.7108,-0.8255 -1.3272,-1.0498 -1.6591,-0.6038 -2.4941,0.0937 -3.0259,1.0507"
           style="fill:#abaaaa;fill-opacity:1;fill-rule:evenodd;stroke:none"
           id="path18441" /><path
           inkscape:connector-curvature="0"
           d="m 492.6982,42.7174 c -0.0743,-0.2014 -0.1368,-0.408 -0.1806,-0.6137 -0.2352,-1.1066 -0.147,-1.9626 0.2579,-2.5864 l -1.2313,1e-4 c -0.2933,0.7293 -0.3554,1.6034 -0.1512,2.5646 0.0456,0.2143 0.1042,0.4276 0.1759,0.6368 l 1.1293,-0.0014 z m 9.5116,0 c -0.2601,-0.4272 -0.4326,-0.955 -0.4326,-1.7171 0,-0.3435 0.008,-0.9039 0.1406,-1.4827 l -1.0635,-2e-4 c -0.0509,0.3349 -0.0787,0.7047 -0.0787,1.1118 0,0.7142 0.2122,1.4548 0.601,2.0887 l 0.8332,-5e-4 z m 5.3663,0 c 0.2632,-0.5882 0.3976,-1.3121 0.3976,-2.1577 0,-0.367 -0.0373,-0.7154 -0.1068,-1.0433 l -0.9107,0.001 c 0.0104,0.1714 0.0161,0.3672 0.0161,0.5901 0,1.2471 -0.2657,2.0751 -0.6817,2.611 l 1.2855,-0.0011 z m 5.084,0 c 0.1893,-0.5636 0.4333,-1.2642 0.7526,-2.1415 0.0922,-0.2531 0.2563,-0.704 0.5571,-1.0588 l -1.0725,3e-4 c -0.2287,0.4124 -0.4012,0.8719 -0.5591,1.2966 l -0.7018,1.9034 1.0237,0 z m 4.3044,0 c 0.1814,-0.4835 0.3411,-0.9111 0.4358,-1.1714 0.2551,-0.7007 0.2048,-1.4325 -0.1499,-2.029 l -0.889,4e-4 c 0.2345,0.2013 0.3804,0.4183 0.4394,0.5646 0.1671,0.4527 0.2022,0.4698 -0.5822,2.636 l 0.7459,-6e-4 z m 7.0176,0 -0.9466,-0.7396 -0.1845,0.4736 c 0.0914,0.0883 0.1606,0.1738 0.2041,0.2654"
           style="fill:#abaaaa;fill-opacity:1;fill-rule:evenodd;stroke:none"
           id="path18443" /><path
           inkscape:connector-curvature="0"
           d="m 479.5142,45.9174 -0.2631,-0.3757 c -0.6183,-0.8831 -0.4473,-1.1301 0.262,-1.6267 l -0.4444,-0.3255 -2.4611,1.7234 0.3817,0.3269 c 0.6069,-0.425 0.9532,-0.1819 1.3069,0.2763 l 1.218,0.0013 z m 33.5868,0 0.008,-0.4194 c -1.0642,-0.4613 -1.1441,-0.6385 -0.7869,-1.7419 0.0886,-0.2821 0.1985,-0.6231 0.3382,-1.039 l -1.0237,3e-4 -0.1804,0.4893 c -0.4222,1.1908 -0.5233,1.4376 -1.1665,1.253 l -0.0529,0.5112 2.6007,0.9465 0.2637,0 z m 1.2821,0 c -0.1062,-0.0199 -0.2242,-0.0554 -0.3587,-0.0984 l -0.004,0.0984 0.3631,0 z m 1.4351,0 c 0.0274,-0.1565 0.0855,-0.3513 0.1769,-0.6025 0.2074,-0.5695 0.6271,-1.6837 0.9694,-2.597 l -0.7459,-5e-4 c -0.0554,0.1535 -0.1148,0.317 -0.1787,0.4922 -0.3885,1.0675 -0.6439,1.6775 -0.8456,2.1099 -0.1832,0.3888 -0.3459,0.5555 -0.5429,0.5991 l 1.1668,-0.0012 z m 6.1771,0 c 1.7678,-2.2597 1.9601,-2.4136 3.25,-1.5661 l 0.1824,-0.5046 -1.4456,-1.1293 -0.927,0 c 0.2222,0.4674 -0.2227,1.0961 -1.7742,3.0821 -0.0311,0.0397 -0.0618,0.0789 -0.0919,0.1175 l 0.8063,4e-4 z m 5.9189,0 -0.2965,-0.5361 c -0.5112,0.1767 -1.0204,0.3586 -1.5307,0.5348 l 1.8272,0.0013 z m -36.3453,-3.2 c 0.5957,1.7391 2.095,3.1954 4.5177,2.6803 0.6531,-0.1388 1.0618,-0.2731 1.5804,-0.4426 l -0.4134,-2.0452 -0.6449,-0.1236 c 0.1543,0.7256 0.3457,1.5262 -0.9196,1.7952 -0.8162,0.1736 -1.5379,0.0901 -1.9824,-0.1948 -0.1973,-0.1201 -0.7022,-0.8429 -1.0085,-1.6702 l -1.1293,9e-4 z m 9.8077,0 c 0.1285,0.2101 0.2763,0.408 0.4423,0.5894 0.6781,0.7652 1.5127,1.2056 2.7331,1.2056 1.482,0 2.5042,-0.6333 3.0241,-1.795 l -1.2855,0 c -0.5275,0.6807 -1.2967,0.8909 -2.0724,0.8909 -0.7615,0 -1.3979,-0.1391 -1.7734,-0.5565 -0.0839,-0.1058 -0.1628,-0.2164 -0.235,-0.3349"
           style="fill:#abaaaa;fill-opacity:1;fill-rule:evenodd;stroke:none"
           id="path18445" /><path
           inkscape:connector-curvature="0"
           d="m 481.108,50.7174 c -0.0305,-0.0292 -0.0599,-0.063 -0.088,-0.1031 -0.1662,-0.2373 -0.2203,-0.6239 -0.2821,-1.2034 l -0.1483,-1.3393 c 1.2344,0.6353 2.321,1.2048 3.1301,1.8691 l 1.3046,-0.5738 c -1.1177,-0.505 -2.0331,-0.8121 -3.5071,-1.5347 -0.338,-0.1736 -0.678,-0.3317 -1.0094,-0.4959 l -0.9936,-1.4189 -1.218,0 c 0.0647,0.0826 0.1296,0.1734 0.1964,0.2689 l 1.1767,1.6804 0.1846,2.4463 c 0.0128,0.1474 0.024,0.2821 0.0333,0.4058 l 1.2208,-0.0014 z m 1.5578,0 -0.4017,-0.309 c -0.0769,0.0538 -0.1539,0.1077 -0.2308,0.1615 -0.0599,0.042 -0.1385,0.0971 -0.2275,0.1463 l 0.86,0.0012 z m 39.753,0 c -0.2602,-0.06 -0.5469,-0.2003 -0.8646,-0.4387 l -0.1444,0.4387 1.009,0 z m 1.7972,0 c 0.3393,-0.4845 0.8866,-1.1849 1.7202,-2.2519 0.6494,-0.8311 1.3449,-1.6706 2.0109,-2.4889 l -0.0329,-0.0592 -1.8272,0 c -0.5578,0.1913 -1.1172,0.3774 -1.682,0.5429 l -3.686,1.092 c 0.207,-0.265 0.4211,-0.539 0.6352,-0.813 l 0.5851,-0.749 c 0.0189,-0.0241 0.0376,-0.048 0.056,-0.0716 l -0.8063,-0.0013 c -1.7475,2.2357 -1.9065,2.4131 -2.7422,1.9336 l -0.1704,0.4554 1.1097,0.867 c 1.5817,-0.6179 5.1169,-1.754 6.8018,-2.1145 l -0.9266,1.203 c -0.1488,0.2074 -0.3914,0.5179 -0.5912,0.7737 -0.3854,0.4932 -0.7159,0.8823 -0.9738,1.1955 -0.2125,0.2442 -0.4511,0.4162 -0.7241,0.4849 l 1.2438,0.0014 z m -11.3787,-4.8 0.2618,0.0953 0.002,-0.0953 -0.2637,0 z m 1.1827,0 -0.0191,0.4235 2.1567,0.7849 0.0214,-0.4858 c -0.2958,-0.1788 -0.4319,-0.3189 -0.3608,-0.7235 l -1.1668,9e-4 c -0.0822,0.0194 -0.1703,0.0162 -0.2683,-0.0011"
           style="fill:#abaaaa;fill-opacity:1;fill-rule:evenodd;stroke:none"
           id="path18447" /><path
           inkscape:connector-curvature="0"
           d="m 475.6109,55.5174 c -0.6039,-0.4266 -1.2921,-0.9123 -1.7367,-1.2354 -1.0128,-0.7358 -1.7009,-1.2872 -2.1482,-1.638 -0.91,-0.6999 -0.7544,-1.0125 -0.2863,-1.7556 l -0.4422,-0.1406 -1.9682,2.7094 0.4237,0.1659 c 0.571,-0.7071 0.8137,-0.6466 1.6917,-0.0604 0.4966,0.3221 1.237,0.8213 2.2593,1.5639 0.1606,0.1167 0.344,0.2507 0.5361,0.3919 l 1.6708,-0.0011 z m 1.7072,0 0.8447,-1.1628 -1.5849,-1.1514 -0.5464,0.3379 c 0.8607,0.6253 1.1318,1.0346 0.495,1.9765 l 0.7916,-2e-4 z m 50.2996,0 c -0.009,-0.1301 -0.004,-0.2534 0.016,-0.368 0.0417,-0.284 0.7539,-1.3684 1.637,-1.9867 1.7852,-1.2499 3.1832,-1.0318 4.2961,0.5577 0.5086,0.7263 0.6316,1.1243 0.8028,1.692 l 0.671,-0.699 c -0.2001,-0.6494 -0.2219,-1.0036 -0.8142,-1.8496 -1.2805,-1.8288 -3.4,-2.1277 -5.3751,-0.7448 -1.1109,0.7779 -1.9867,1.999 -1.9814,3.3981 l 0.7478,3e-4 z m -47.7305,-4.8 c 0.0756,1.0078 0.0203,1.2766 -0.4584,1.6622 l 0.4207,0.3281 2.8286,-1.9808 -0.0123,-0.0095 -0.86,0 c -0.2112,0.1157 -0.4807,0.1999 -0.6978,-0.0011 l -1.2208,0.0011 z m 41.5226,0 -0.01,0.0294 2.4005,1.8754 0.1836,-0.4891 c -0.3095,-0.3665 -0.405,-0.5095 0.2318,-1.4167 l -1.2438,10e-4 c -0.1703,0.0414 -0.3542,0.0441 -0.5534,-0.0011"
           style="fill:#abaaaa;fill-opacity:1;fill-rule:evenodd;stroke:none"
           id="path18449" /><path
           inkscape:connector-curvature="0"
           d="m 471.1721,61.9174 c -0.602,-0.2258 -1.3839,-0.5498 -2.3257,-0.9495 -1.0563,-0.4484 -1.6991,-0.7439 -2.0668,-0.9454 -0.4877,-0.275 -0.4432,-0.5281 -0.2897,-1.0976 l -0.5133,-0.0365 -1.0189,2.4008 0.5092,0.0462 c 0.1778,-0.3892 0.274,-0.5863 0.924,-0.3672 0.4331,0.1452 1.1797,0.4399 2.3928,0.9492 l 2.3884,0 z m 2.1193,0 10e-4,-0.003 -0.5093,-0.0462 c -0.007,0.0168 -0.0144,0.0332 -0.0215,0.0489 l 0.5295,3e-4 z m 57.5313,0 c -0.004,-0.0063 -0.007,-0.0134 -0.0109,-0.0206 l -0.0221,0.0206 0.033,0 z m 4.2004,0 c 0.0344,-0.0154 0.0691,-0.0308 0.104,-0.0464 1.0484,-0.4667 1.7029,-0.7353 2.101,-0.8667 0.5338,-0.1692 0.6885,0.036 1.0003,0.5366 l 0.3768,-0.3505 -1.0609,-2.3824 -0.381,0.3408 c 0.1634,0.3955 0.2419,0.6003 -0.3617,0.9262 -0.4701,0.2549 -1.3828,0.6842 -2.9819,1.3961 -0.3918,0.1744 -0.7291,0.3217 -1.0179,0.446 l 2.2213,3e-4 z m -61.083,-6.4 c 0.6269,0.4617 1.3457,0.9985 1.6619,1.2577 -0.6929,0.9538 -1.0547,1.4519 -2.2042,0.7069 l -0.5465,0.338 1.8287,1.3286 2.6381,-3.6312 -0.7916,0 c -0.0293,0.0435 -0.0605,0.088 -0.0936,0.1336 -0.0736,0.1012 -0.1503,0.1873 -0.2333,0.2816 -0.1766,-0.1248 -0.3775,-0.2666 -0.5887,-0.4156 l -1.6708,4e-4 z m 52.9299,0 c 0.003,0.7051 0.2293,1.4558 0.7629,2.2178 0.3829,0.5468 0.6662,0.8707 1.0249,1.2817 l 1.721,-1.1796 -0.138,-0.6419 c -0.6077,0.4255 -1.27,0.9146 -2.0119,-0.1451 -0.3732,-0.5329 -0.5801,-1.074 -0.6112,-1.5332"
           style="fill:#abaaaa;fill-opacity:1;fill-rule:evenodd;stroke:none"
           id="path18451" /><path
           inkscape:connector-curvature="0"
           d="m 468.7837,61.9174 c 0.2068,0.0868 0.4271,0.1798 0.6618,0.2794 0.7897,0.3352 1.351,0.5847 1.7418,0.762 0.888,0.3996 0.8416,0.5385 0.621,1.1476 l 0.5388,0.036 0.9443,-2.225 -0.5295,0 c -0.1956,0.4325 -0.3891,0.4469 -1.249,0.1256 -0.1062,-0.0375 -0.2199,-0.0791 -0.3408,-0.1246 l -2.3884,-10e-4 z m 62.006,0 -0.3717,0.349 0.9843,2.2109 0.3812,-0.341 c -0.2121,-0.4766 -0.1127,-0.6236 0.7387,-1.0484 0.5786,-0.3018 1.4276,-0.692 2.5009,-1.1705 l -2.2213,0 c -0.2888,0.1241 -0.5292,0.2254 -0.7272,0.3078 -0.8868,0.3722 -0.966,0.2515 -1.2519,-0.307 l -0.033,-8e-4 z m -67.8737,5.8733 c -0.3876,2.1987 0.8996,3.9088 3.2741,4.3274 2.0089,0.3542 4.3506,-0.377 4.8324,-3.11 0.1159,-0.6575 0.1445,-1.0868 0.1816,-1.6311 l -2.0511,-0.3828 -0.3562,0.5516 c 0.7305,0.1288 1.5446,0.2511 1.32,1.5252 -0.1448,0.8218 -0.4926,1.4597 -0.9232,1.7651 -0.2303,0.1714 -1.5006,0.4346 -2.5622,0.2474 -2.1461,-0.3784 -2.9804,-1.5212 -2.6435,-3.4322 0.1539,-0.8732 0.3484,-1.2416 0.6287,-1.7641 l -0.9686,0.0199 c -0.3177,0.6007 -0.5527,0.8665 -0.732,1.8836 z m 77.4131,-1.8081 -0.4637,0.2408 c 0.1141,0.6471 -0.3196,0.7235 -1.3397,0.9457 -0.2512,0.0443 -0.5234,0.103 -0.8658,0.1633 -1.5069,0.2657 -2.5455,0.4488 -3.2114,0.5451 -1.0785,0.1583 -1.2551,0.1577 -1.4757,-0.6931 l -0.4314,0.2242 0.509,2.8868 0.4277,-0.2449 c -0.0939,-1.0002 -0.0939,-1.0002 2.5088,-1.4591 0.9702,-0.1711 3.4546,-0.5667 3.9227,-0.6493 0.0976,0.3536 0.1626,0.5222 0.2568,1.0565 0.1667,0.945 0.0553,1.5155 -1.3488,1.7631 l -0.0373,0.5891 2.4199,-0.4267"
           style="fill:#abaaaa;fill-opacity:1;fill-rule:evenodd;stroke:none"
           id="path18453" /><path
           inkscape:connector-curvature="0"
           d="m 466.1242,82.1698 c 0,0.6036 0.4892,1.0929 1.0928,1.0929 0.6036,0 1.093,-0.4893 1.093,-1.0929 0,-0.6036 -0.4894,-1.0929 -1.093,-1.0929 -0.6036,0 -1.0928,0.4893 -1.0928,1.0929"
           style="fill:#ef2c30;fill-opacity:1;fill-rule:nonzero;stroke:none"
           id="path18455" /><path
           inkscape:connector-curvature="0"
           d="m 466.1242,82.1698 c 0,0.6036 0.4892,1.0929 1.0928,1.0929 0.6036,0 1.093,-0.4893 1.093,-1.0929 0,-0.6036 -0.4894,-1.0929 -1.093,-1.0929 -0.6036,0 -1.0928,0.4893 -1.0928,1.0929 z"
           style="fill:none;stroke:#ef2c30;stroke-width:0.257;stroke-linecap:butt;stroke-linejoin:miter;stroke-miterlimit:3.86369991;stroke-opacity:1;stroke-dasharray:none"
           id="path18457" /><path
           inkscape:connector-curvature="0"
           d="m 535.715,82.1601 c 0,0.6036 0.4892,1.0929 1.0928,1.0929 0.6036,0 1.093,-0.4893 1.093,-1.0929 0,-0.6036 -0.4894,-1.0929 -1.093,-1.0929 -0.6036,0 -1.0928,0.4893 -1.0928,1.0929"
           style="fill:#ef2c30;fill-opacity:1;fill-rule:nonzero;stroke:none"
           id="path18459" /><path
           inkscape:connector-curvature="0"
           d="m 535.715,82.1601 c 0,0.6036 0.4892,1.0929 1.0928,1.0929 0.6036,0 1.093,-0.4893 1.093,-1.0929 0,-0.6036 -0.4894,-1.0929 -1.093,-1.0929 -0.6036,0 -1.0928,0.4893 -1.0928,1.0929 z"
           style="fill:none;stroke:#ef2c30;stroke-width:0.257;stroke-linecap:butt;stroke-linejoin:miter;stroke-miterlimit:3.86369991;stroke-opacity:1;stroke-dasharray:none"
           id="path18461" /></g></g></g></svg>